<svg width="995" height="128" viewBox="0 0 995 128" fill="none" xmlns="http://www.w3.org/2000/svg">
<g clip-path="url(#clip0_64_2)">
<path fill-rule="evenodd" clip-rule="evenodd" d="M267.329 121.278L319.329 68.7779L324.607 63.449L319.278 58.1712L267.278 6.67115L256.722 17.3289L303.393 63.551L256.671 110.722L267.329 121.278ZM63.6714 6.72214L11.6714 59.2221L6.39325 64.551L11.7224 69.8289L63.7224 121.329L74.2776 110.671L27.6067 64.449L74.3286 17.2779L63.6714 6.72214ZM199.104 67.7514C199.239 66.5196 199.308 65.2679 199.308 64C199.308 56.4593 196.853 49.492 192.699 43.8536C190.182 40.4365 187.04 37.5074 183.443 35.2347C178.194 31.919 171.975 30 165.308 30C152.252 30 140.914 37.3597 135.217 48.1569C133.274 51.8395 131.988 55.9219 131.513 60.2486C131.378 61.4805 131.308 62.7321 131.308 64C131.308 71.5407 133.763 78.508 137.917 84.1464C147.547 82.7267 158.041 80.569 168.964 77.6424C179.886 74.7157 190.054 71.3369 199.104 67.7514ZM213.582 72.4503C209.578 95.4852 189.489 113 165.308 113C150.219 113 136.724 106.18 127.735 95.4544C102.581 97.8201 84.5113 94.7203 82.2436 86.2571C79.9762 77.7948 94.0713 66.0774 117.034 55.5497C121.038 32.5148 141.128 15 165.308 15C180.397 15 193.893 21.82 202.881 32.5456C228.036 30.18 246.105 33.2797 248.373 41.7429C250.64 50.2052 236.545 61.9227 213.582 72.4503ZM195.399 79.8431C189.702 90.6403 178.365 98 165.308 98C158.641 98 152.422 96.0811 147.174 92.7654C154.978 91.369 163.167 89.5485 171.552 87.3017C179.938 85.0545 187.941 82.5365 195.399 79.8431ZM209.144 42.0794C212.828 41.8443 216.296 41.7468 219.512 41.7845C227.091 41.8731 232.679 42.7093 236.233 43.9022C236.932 44.1367 237.476 44.3565 237.897 44.5499C237.629 44.9278 237.268 45.3904 236.78 45.9429C234.298 48.7531 229.877 52.2709 223.358 56.1375C220.589 57.7792 217.534 59.4304 214.222 61.0706C213.821 54.275 212.036 47.8519 209.144 42.0794ZM116.317 63.0373C116.305 63.6502 116.305 64.264 116.316 64.8784C116.311 64.5862 116.308 64.2934 116.308 64C116.308 63.6784 116.311 63.3575 116.317 63.0373ZM121.473 85.9206C118.581 80.1481 116.795 73.725 116.394 66.9295C113.082 68.5696 110.027 70.2208 107.259 71.8626C100.739 75.7291 96.3182 79.247 93.8367 82.0571C93.3488 82.6096 92.987 83.0723 92.7195 83.4501C93.14 83.6436 93.6847 83.8633 94.3835 84.0978C97.9376 85.2907 103.525 86.1269 111.105 86.2156C114.32 86.2532 117.788 86.1557 121.473 85.9206ZM239.195 45.3302C239.194 45.3306 239.18 45.3173 239.155 45.2887C239.185 45.3154 239.197 45.3297 239.195 45.3302ZM238.617 43.2808C238.624 43.244 238.63 43.2252 238.631 43.225C238.633 43.2248 238.629 43.2432 238.617 43.2808ZM91.4209 82.6699C91.4222 82.6694 91.4369 82.6827 91.4609 82.7113C91.4317 82.6847 91.4196 82.6704 91.4209 82.6699ZM91.999 84.7192C91.9924 84.756 91.9864 84.7748 91.985 84.7751C91.9836 84.7753 91.9869 84.7569 91.999 84.7192Z" fill="black"/>
<path d="M379.774 45.1889C379.49 42.3243 378.271 40.099 376.116 38.5128C373.962 36.9266 371.038 36.1335 367.345 36.1335C364.836 36.1335 362.717 36.4886 360.989 37.1989C359.26 37.8854 357.935 38.8442 357.011 40.0753C356.112 41.3063 355.662 42.7031 355.662 44.2656C355.615 45.5677 355.887 46.7041 356.479 47.6747C357.094 48.6454 357.935 49.4858 359 50.196C360.065 50.8826 361.296 51.4863 362.693 52.0071C364.09 52.5043 365.581 52.9304 367.168 53.2855L373.702 54.848C376.874 55.5582 379.786 56.5052 382.438 57.6889C385.089 58.8726 387.385 60.3286 389.327 62.0568C391.268 63.785 392.771 65.821 393.837 68.1648C394.926 70.5085 395.482 73.1955 395.506 76.2259C395.482 80.6766 394.346 84.5355 392.097 87.8026C389.871 91.0459 386.652 93.5672 382.438 95.3665C378.247 97.142 373.193 98.0298 367.274 98.0298C361.403 98.0298 356.289 97.1302 351.933 95.331C347.601 93.5317 344.215 90.8684 341.777 87.3409C339.362 83.7898 338.096 79.3982 337.977 74.1662H352.857C353.022 76.6046 353.721 78.6406 354.952 80.2741C356.206 81.884 357.875 83.1032 359.959 83.9318C362.066 84.7367 364.445 85.1392 367.097 85.1392C369.701 85.1392 371.962 84.7604 373.879 84.0028C375.821 83.2453 377.324 82.1918 378.389 80.8423C379.455 79.4929 379.987 77.9422 379.987 76.1903C379.987 74.5568 379.502 73.1837 378.531 72.071C377.584 70.9583 376.188 70.0114 374.341 69.2301C372.518 68.4489 370.281 67.7386 367.629 67.0994L359.71 65.1108C353.579 63.6193 348.737 61.2874 345.186 58.1151C341.635 54.9427 339.871 50.6695 339.895 45.2955C339.871 40.892 341.043 37.045 343.411 33.7543C345.802 30.4635 349.08 27.8949 353.247 26.0483C357.414 24.2017 362.149 23.2784 367.452 23.2784C372.849 23.2784 377.561 24.2017 381.585 26.0483C385.634 27.8949 388.782 30.4635 391.031 33.7543C393.28 37.045 394.44 40.8565 394.511 45.1889H379.774ZM405.564 117.455V42.4545H420.479V51.6165H421.154C421.817 50.1487 422.775 48.6572 424.03 47.142C425.309 45.6032 426.966 44.3248 429.002 43.3068C431.061 42.2652 433.618 41.7443 436.672 41.7443C440.65 41.7443 444.319 42.786 447.681 44.8693C451.042 46.929 453.73 50.0421 455.742 54.2088C457.754 58.3518 458.76 63.5483 458.76 69.7983C458.76 75.8826 457.778 81.0199 455.813 85.2102C453.872 89.3769 451.22 92.5374 447.858 94.6918C444.52 96.8224 440.78 97.8878 436.637 97.8878C433.701 97.8878 431.203 97.4025 429.144 96.4318C427.108 95.4612 425.439 94.242 424.137 92.7741C422.835 91.2827 421.84 89.7794 421.154 88.2642H420.692V117.455H405.564ZM420.373 69.7273C420.373 72.9706 420.822 75.7997 421.722 78.2145C422.622 80.6293 423.924 82.5114 425.628 83.8608C427.333 85.1866 429.404 85.8494 431.843 85.8494C434.305 85.8494 436.388 85.1747 438.093 83.8253C439.797 82.4522 441.087 80.5582 441.963 78.1435C442.863 75.705 443.313 72.8996 443.313 69.7273C443.313 66.5786 442.875 63.8087 441.999 61.4176C441.123 59.0265 439.833 57.1562 438.128 55.8068C436.424 54.4574 434.328 53.7827 431.843 53.7827C429.381 53.7827 427.297 54.4337 425.593 55.7358C423.912 57.0379 422.622 58.8845 421.722 61.2756C420.822 63.6667 420.373 66.4839 420.373 69.7273ZM484.4 98.0298C480.919 98.0298 477.818 97.4261 475.096 96.2188C472.373 94.9877 470.219 93.1766 468.632 90.7855C467.07 88.3707 466.289 85.3641 466.289 81.7656C466.289 78.7353 466.845 76.1903 467.958 74.1307C469.07 72.071 470.586 70.4138 472.503 69.1591C474.421 67.9044 476.599 66.9574 479.037 66.3182C481.499 65.679 484.08 65.2292 486.779 64.9688C489.951 64.6373 492.508 64.3295 494.449 64.0455C496.391 63.7377 497.799 63.2879 498.675 62.696C499.551 62.1042 499.989 61.2282 499.989 60.0682V59.8551C499.989 57.6061 499.279 55.866 497.858 54.6349C496.462 53.4039 494.473 52.7884 491.892 52.7884C489.17 52.7884 487.004 53.392 485.394 54.5994C483.784 55.7831 482.719 57.2746 482.198 59.0739L468.206 57.9375C468.917 54.6231 470.313 51.7585 472.397 49.3438C474.48 46.9053 477.167 45.035 480.458 43.733C483.772 42.4072 487.607 41.7443 491.963 41.7443C494.994 41.7443 497.894 42.0994 500.664 42.8097C503.457 43.5199 505.931 44.6207 508.086 46.1122C510.264 47.6037 511.98 49.5213 513.235 51.8651C514.489 54.1851 515.117 56.9669 515.117 60.2102V97H500.77V89.4361H500.344C499.468 91.1406 498.296 92.6439 496.828 93.946C495.361 95.2244 493.597 96.2306 491.537 96.9645C489.478 97.6747 487.098 98.0298 484.4 98.0298ZM488.732 87.5895C490.957 87.5895 492.922 87.1515 494.627 86.2756C496.331 85.3759 497.669 84.1686 498.64 82.6534C499.61 81.1383 500.096 79.4219 500.096 77.5043V71.7159C499.622 72.0237 498.971 72.3078 498.142 72.5682C497.337 72.8049 496.426 73.0298 495.408 73.2429C494.39 73.4323 493.372 73.6098 492.354 73.7756C491.336 73.9176 490.413 74.0478 489.584 74.1662C487.809 74.4266 486.258 74.8409 484.932 75.4091C483.606 75.9773 482.577 76.7467 481.843 77.7173C481.109 78.6643 480.742 79.848 480.742 81.2685C480.742 83.3281 481.488 84.9025 482.979 85.9915C484.494 87.0568 486.412 87.5895 488.732 87.5895ZM551.498 98.0653C545.911 98.0653 541.105 96.8816 537.081 94.5142C533.08 92.1231 530.002 88.8087 527.848 84.571C525.717 80.3333 524.652 75.4564 524.652 69.9403C524.652 64.3532 525.729 59.4527 527.883 55.2386C530.061 51.0009 533.151 47.6984 537.152 45.331C541.153 42.9399 545.911 41.7443 551.427 41.7443C556.186 41.7443 560.352 42.6084 563.927 44.3366C567.502 46.0649 570.331 48.4915 572.414 51.6165C574.498 54.7415 575.646 58.411 575.859 62.625H561.583C561.181 59.9025 560.116 57.7126 558.387 56.0554C556.683 54.3745 554.446 53.5341 551.676 53.5341C549.332 53.5341 547.284 54.1733 545.532 55.4517C543.804 56.7064 542.455 58.5412 541.484 60.956C540.513 63.3707 540.028 66.2945 540.028 69.7273C540.028 73.2074 540.502 76.1667 541.449 78.6051C542.419 81.0436 543.78 82.902 545.532 84.1804C547.284 85.4588 549.332 86.098 551.676 86.098C553.404 86.098 554.955 85.7429 556.328 85.0327C557.725 84.3224 558.873 83.2926 559.772 81.9432C560.696 80.5701 561.299 78.9247 561.583 77.0071H575.859C575.622 81.1738 574.486 84.8433 572.45 88.0156C570.438 91.1643 567.656 93.6264 564.105 95.402C560.554 97.1776 556.351 98.0653 551.498 98.0653ZM610.403 98.0653C604.792 98.0653 599.962 96.929 595.914 94.6562C591.889 92.3598 588.788 89.1165 586.61 84.9261C584.432 80.7121 583.343 75.7287 583.343 69.9759C583.343 64.3651 584.432 59.4408 586.61 55.2031C588.788 50.9654 591.854 47.6629 595.808 45.2955C599.785 42.928 604.449 41.7443 609.799 41.7443C613.397 41.7443 616.747 42.3243 619.849 43.4844C622.974 44.6207 625.696 46.3371 628.016 48.6335C630.36 50.9299 632.183 53.8182 633.485 57.2983C634.787 60.7547 635.438 64.803 635.438 69.4432V73.598H589.38V64.223H621.198C621.198 62.045 620.725 60.1155 619.778 58.4347C618.831 56.7538 617.517 55.4399 615.836 54.4929C614.179 53.5223 612.249 53.0369 610.048 53.0369C607.751 53.0369 605.715 53.5696 603.94 54.6349C602.188 55.6766 600.815 57.0852 599.82 58.8608C598.826 60.6127 598.317 62.5658 598.293 64.7202V73.6335C598.293 76.3324 598.79 78.6643 599.785 80.6293C600.803 82.5942 602.235 84.1094 604.082 85.1747C605.928 86.2401 608.118 86.7727 610.651 86.7727C612.332 86.7727 613.871 86.536 615.268 86.0625C616.665 85.589 617.86 84.8788 618.854 83.9318C619.849 82.9848 620.606 81.8248 621.127 80.4517L635.119 81.375C634.408 84.7367 632.952 87.6723 630.751 90.1818C628.573 92.6676 625.755 94.6089 622.299 96.0057C618.866 97.3788 614.901 98.0653 610.403 98.0653ZM709.763 49.7344H694.21C693.925 47.7221 693.345 45.9347 692.469 44.3722C691.594 42.786 690.469 41.4366 689.096 40.3239C687.723 39.2112 686.137 38.3589 684.337 37.767C682.562 37.1752 680.632 36.8793 678.549 36.8793C674.785 36.8793 671.506 37.8144 668.712 39.6847C665.919 41.5312 663.753 44.2301 662.214 47.7812C660.675 51.3087 659.906 55.5937 659.906 60.6364C659.906 65.821 660.675 70.1771 662.214 73.7045C663.776 77.232 665.954 79.8954 668.748 81.6946C671.541 83.4938 674.773 84.3935 678.442 84.3935C680.502 84.3935 682.408 84.1212 684.16 83.5767C685.935 83.0322 687.51 82.2391 688.883 81.1974C690.256 80.1321 691.392 78.8419 692.292 77.3267C693.215 75.8116 693.854 74.0833 694.21 72.142L709.763 72.2131C709.361 75.5511 708.355 78.7708 706.745 81.8722C705.159 84.9498 703.016 87.7079 700.317 90.1463C697.642 92.5611 694.446 94.4787 690.729 95.8991C687.036 97.2959 682.858 97.9943 678.194 97.9943C671.707 97.9943 665.907 96.5265 660.793 93.5909C655.703 90.6553 651.679 86.4058 648.719 80.8423C645.784 75.2789 644.316 68.5436 644.316 60.6364C644.316 52.7055 645.808 45.9583 648.79 40.3949C651.773 34.8314 655.822 30.5937 660.935 27.6818C666.049 24.7462 671.802 23.2784 678.194 23.2784C682.408 23.2784 686.314 23.8703 689.913 25.054C693.535 26.2377 696.743 27.9659 699.536 30.2386C702.33 32.4877 704.603 35.2457 706.354 38.5128C708.13 41.7798 709.266 45.5204 709.763 49.7344ZM745.151 98.0653C739.634 98.0653 734.864 96.8935 730.839 94.5497C726.839 92.1823 723.749 88.8916 721.571 84.6776C719.393 80.4399 718.304 75.5275 718.304 69.9403C718.304 64.3059 719.393 59.3816 721.571 55.1676C723.749 50.9299 726.839 47.6392 730.839 45.2955C734.864 42.928 739.634 41.7443 745.151 41.7443C750.667 41.7443 755.425 42.928 759.426 45.2955C763.451 47.6392 766.552 50.9299 768.73 55.1676C770.908 59.3816 771.997 64.3059 771.997 69.9403C771.997 75.5275 770.908 80.4399 768.73 84.6776C766.552 88.8916 763.451 92.1823 759.426 94.5497C755.425 96.8935 750.667 98.0653 745.151 98.0653ZM745.222 86.3466C747.731 86.3466 749.826 85.6364 751.507 84.2159C753.188 82.7718 754.455 80.8068 755.307 78.321C756.183 75.8352 756.621 73.0062 756.621 69.8338C756.621 66.6615 756.183 63.8324 755.307 61.3466C754.455 58.8608 753.188 56.8958 751.507 55.4517C749.826 54.0076 747.731 53.2855 745.222 53.2855C742.688 53.2855 740.558 54.0076 738.83 55.4517C737.125 56.8958 735.835 58.8608 734.959 61.3466C734.107 63.8324 733.68 66.6615 733.68 69.8338C733.68 73.0062 734.107 75.8352 734.959 78.321C735.835 80.8068 737.125 82.7718 738.83 84.2159C740.558 85.6364 742.688 86.3466 745.222 86.3466ZM816.812 73.7756V42.4545H831.94V97H817.416V87.0923H816.848C815.617 90.2884 813.569 92.857 810.705 94.7983C807.864 96.7396 804.395 97.7102 800.3 97.7102C796.654 97.7102 793.446 96.8816 790.676 95.2244C787.906 93.5672 785.74 91.2116 784.178 88.1577C782.639 85.1037 781.857 81.446 781.834 77.1847V42.4545H796.962V74.4858C796.985 77.7055 797.849 80.2505 799.554 82.1207C801.259 83.991 803.543 84.9261 806.408 84.9261C808.231 84.9261 809.935 84.5118 811.521 83.6832C813.107 82.831 814.386 81.5762 815.357 79.919C816.351 78.2618 816.836 76.214 816.812 73.7756ZM844.041 97V42.4545H858.707V51.9716H859.275C860.27 48.5862 861.939 46.0294 864.282 44.3011C866.626 42.5492 869.325 41.6733 872.379 41.6733C873.136 41.6733 873.953 41.7206 874.829 41.8153C875.705 41.91 876.475 42.0402 877.137 42.206V55.6293C876.427 55.4162 875.445 55.2268 874.19 55.0611C872.935 54.8954 871.787 54.8125 870.745 54.8125C868.52 54.8125 866.531 55.2978 864.779 56.2685C863.051 57.2154 861.678 58.5412 860.66 60.2457C859.666 61.9503 859.169 63.9152 859.169 66.1406V97H844.041ZM930.342 58.0085L916.493 58.8608C916.256 57.6771 915.747 56.6117 914.966 55.6648C914.185 54.6941 913.155 53.9247 911.876 53.3565C910.622 52.7647 909.118 52.4688 907.366 52.4688C905.023 52.4688 903.046 52.9659 901.436 53.9602C899.826 54.9309 899.021 56.233 899.021 57.8665C899.021 59.1686 899.542 60.2694 900.584 61.169C901.625 62.0687 903.413 62.7907 905.946 63.3352L915.818 65.3239C921.121 66.4129 925.075 68.1648 927.679 70.5795C930.283 72.9943 931.585 76.1667 931.585 80.0966C931.585 83.6714 930.532 86.8082 928.425 89.5071C926.341 92.206 923.477 94.313 919.831 95.8281C916.209 97.3196 912.03 98.0653 907.295 98.0653C900.075 98.0653 894.322 96.562 890.037 93.5554C885.776 90.5251 883.278 86.4058 882.544 81.1974L897.423 80.4162C897.873 82.6179 898.962 84.2988 900.69 85.4588C902.419 86.5952 904.632 87.1634 907.331 87.1634C909.982 87.1634 912.113 86.6544 913.723 85.6364C915.357 84.5947 916.185 83.2571 916.209 81.6236C916.185 80.2505 915.605 79.1259 914.469 78.25C913.332 77.3504 911.58 76.6638 909.213 76.1903L899.767 74.3082C894.44 73.2429 890.475 71.3963 887.871 68.7685C885.29 66.1406 884 62.7907 884 58.7188C884 55.215 884.947 52.1965 886.841 49.6634C888.759 47.1302 891.446 45.1771 894.902 43.804C898.382 42.4309 902.454 41.7443 907.118 41.7443C914.007 41.7443 919.429 43.2003 923.382 46.1122C927.359 49.0241 929.679 52.9896 930.342 58.0085ZM965.969 98.0653C960.358 98.0653 955.529 96.929 951.48 94.6562C947.456 92.3598 944.355 89.1165 942.176 84.9261C939.998 80.7121 938.909 75.7287 938.909 69.9759C938.909 64.3651 939.998 59.4408 942.176 55.2031C944.355 50.9654 947.42 47.6629 951.374 45.2955C955.351 42.928 960.015 41.7443 965.365 41.7443C968.964 41.7443 972.314 42.3243 975.415 43.4844C978.54 44.6207 981.263 46.3371 983.583 48.6335C985.926 50.9299 987.749 53.8182 989.051 57.2983C990.354 60.7547 991.005 64.803 991.005 69.4432V73.598H944.946V64.223H976.765C976.765 62.045 976.291 60.1155 975.344 58.4347C974.397 56.7538 973.083 55.4399 971.402 54.4929C969.745 53.5223 967.816 53.0369 965.614 53.0369C963.318 53.0369 961.282 53.5696 959.506 54.6349C957.754 55.6766 956.381 57.0852 955.387 58.8608C954.392 60.6127 953.883 62.5658 953.86 64.7202V73.6335C953.86 76.3324 954.357 78.6643 955.351 80.6293C956.369 82.5942 957.801 84.1094 959.648 85.1747C961.495 86.2401 963.685 86.7727 966.218 86.7727C967.899 86.7727 969.437 86.536 970.834 86.0625C972.231 85.589 973.426 84.8788 974.421 83.9318C975.415 82.9848 976.173 81.8248 976.694 80.4517L990.685 81.375C989.975 84.7367 988.519 87.6723 986.317 90.1818C984.139 92.6676 981.322 94.6089 977.865 96.0057C974.433 97.3788 970.467 98.0653 965.969 98.0653Z" fill="black"/>
</g>
<defs>
<clipPath id="clip0_64_2">
<rect width="995" height="128" fill="white"/>
</clipPath>
</defs>
</svg>
