<svg width="259" height="103" viewBox="0 0 259 103" fill="none" xmlns="http://www.w3.org/2000/svg">
<g filter="url(#filter0_d_267_42)">
<path fill-rule="evenodd" clip-rule="evenodd" d="M205.949 94.7484L246.009 53.7327L250.075 49.5695L245.97 45.4462L205.91 5.21182L197.777 13.5382L233.732 49.6492L197.738 86.5015L205.949 94.7484ZM49.0524 5.25166L8.99203 46.2673L4.92578 50.4305L9.03132 54.5538L49.0917 94.7883L57.2234 86.4617L21.2685 50.3508L57.2627 13.4983L49.0524 5.25166ZM153.389 52.9308C153.493 51.9684 153.546 50.9905 153.546 50C153.546 44.1088 151.655 38.6656 148.454 34.2606C146.515 31.591 144.095 29.3026 141.324 27.5271C137.28 24.9367 132.489 23.4375 127.353 23.4375C117.294 23.4375 108.56 29.1873 104.171 37.6226C102.674 40.4996 101.683 43.689 101.317 47.0692C101.213 48.0316 101.159 49.0094 101.159 50C101.159 55.8912 103.051 61.3344 106.251 65.7394C113.67 64.6302 121.754 62.9445 130.169 60.6581C138.583 58.3716 146.417 55.7319 153.389 52.9308ZM164.542 56.6018C161.458 74.5978 145.981 88.2812 127.353 88.2812C115.728 88.2812 105.332 82.9531 98.4066 74.5737C79.0281 76.4219 65.1074 74.0002 63.3603 67.3883C61.6135 60.7772 72.4723 51.623 90.1626 43.3982C93.2473 25.4022 108.724 11.7187 127.353 11.7187C138.977 11.7187 149.374 17.0469 156.299 25.4262C175.678 23.5781 189.598 25.9998 191.345 32.6116C193.092 39.2228 182.233 48.3771 164.542 56.6018ZM150.534 62.3774C146.146 70.8127 137.412 76.5625 127.353 76.5625C122.216 76.5625 117.425 75.0633 113.382 72.473C119.394 71.382 125.703 69.9597 132.163 68.2044C138.623 66.4488 144.789 64.4816 150.534 62.3774ZM161.123 32.8745C163.962 32.6908 166.633 32.6147 169.111 32.6441C174.95 32.7133 179.255 33.3666 181.993 34.2986C182.531 34.4818 182.95 34.6535 183.275 34.8046C183.068 35.0998 182.79 35.4612 182.414 35.8929C180.502 38.0883 177.096 40.8366 172.074 43.8574C169.941 45.14 167.587 46.43 165.036 47.7114C164.727 42.4023 163.351 37.3843 161.123 32.8745ZM89.6102 49.248C89.601 49.7269 89.601 50.2064 89.6095 50.6864C89.6056 50.458 89.6033 50.2293 89.6033 50C89.6033 49.7487 89.6056 49.4981 89.6102 49.248ZM93.5824 67.1255C91.3544 62.6157 89.9785 57.5976 89.6696 52.2887C87.118 53.57 84.7645 54.86 82.632 56.1426C77.6091 59.1633 74.2033 61.9117 72.2916 64.1071C71.9157 64.5387 71.637 64.9002 71.4309 65.1954C71.7549 65.3465 72.1745 65.5182 72.7128 65.7014C75.4509 66.6333 79.7554 67.2866 85.595 67.3559C88.0718 67.3853 90.7435 67.3091 93.5824 67.1255ZM184.275 35.4142C184.274 35.4145 184.262 35.4041 184.244 35.3818C184.267 35.4026 184.276 35.4138 184.275 35.4142ZM183.829 33.8131C183.835 33.7844 183.839 33.7697 183.84 33.7695C183.842 33.7694 183.839 33.7837 183.829 33.8131ZM70.4436 64.5979C70.4357 64.5895 70.4311 64.5856 70.4305 64.5858C70.4299 64.5861 70.4322 64.5891 70.4377 64.5951C70.4427 64.6005 70.4505 64.6082 70.4613 64.6182C70.4543 64.6098 70.4483 64.603 70.4436 64.5979ZM70.8758 66.1869C70.8707 66.2156 70.8661 66.2303 70.865 66.2305C70.864 66.2307 70.8665 66.2163 70.8758 66.1869Z" fill="black"/>
</g>
<defs>
<filter id="filter0_d_267_42" x="0" y="0" width="263" height="108" filterUnits="userSpaceOnUse" color-interpolation-filters="sRGB">
<feFlood flood-opacity="0" result="BackgroundImageFix"/>
<feColorMatrix in="SourceAlpha" type="matrix" values="0 0 0 0 0 0 0 0 0 0 0 0 0 0 0 0 0 0 127 0" result="hardAlpha"/>
<feOffset dx="4" dy="4"/>
<feGaussianBlur stdDeviation="2"/>
<feColorMatrix type="matrix" values="0 0 0 0 0 0 0 0 0 0 0 0 0 0 0 0 0 0 0.25 0"/>
<feBlend mode="normal" in2="BackgroundImageFix" result="effect1_dropShadow_267_42"/>
<feBlend mode="normal" in="SourceGraphic" in2="effect1_dropShadow_267_42" result="shape"/>
</filter>
</defs>
</svg>
