<svg width="139" height="54" viewBox="0 0 139 54" fill="none" xmlns="http://www.w3.org/2000/svg">
<path fill-rule="evenodd" clip-rule="evenodd" d="M112.262 51.1642L134.099 29.0157L136.315 26.7675L134.077 24.541L112.241 2.81439L107.808 7.31063L127.407 26.8106L107.786 46.7108L112.262 51.1642ZM26.7381 2.8359L4.90126 24.9843L2.68475 27.2325L4.92267 29.4591L26.7595 51.1857L31.1921 46.6893L11.5931 27.1894L31.2135 7.28911L26.7381 2.8359ZM83.6116 28.5826C83.6683 28.063 83.6973 27.5349 83.6973 27C83.6973 23.8188 82.6663 20.8794 80.9219 18.5007C79.8649 17.0591 78.5455 15.8234 77.0349 14.8646C74.8307 13.4658 72.2191 12.6563 69.4193 12.6563C63.9366 12.6563 59.1753 15.7611 56.7829 20.3162C55.967 21.8698 55.427 23.5921 55.2275 25.4174C55.1708 25.9371 55.1414 26.4651 55.1414 27C55.1414 30.1812 56.1724 33.1206 57.9168 35.4993C61.9608 34.9003 66.3676 33.99 70.9546 32.7554C75.5412 31.5207 79.8112 30.0953 83.6116 28.5826ZM89.6915 30.565C88.0101 40.2828 79.5739 47.6719 69.4193 47.6719C63.0829 47.6719 57.4158 44.7947 53.641 40.2698C43.0778 41.2679 35.4896 39.9601 34.5373 36.3897C33.5851 32.8197 39.5042 27.8764 49.1472 23.435C50.8286 13.7172 59.2652 6.32813 69.4193 6.32813C75.7558 6.32813 81.4233 9.20531 85.1977 13.7302C95.7613 12.7322 103.349 14.0399 104.302 17.6103C105.254 21.1803 99.3346 26.1236 89.6915 30.565ZM82.0557 33.6838C79.6633 38.2389 74.9025 41.3438 69.4193 41.3438C66.6196 41.3438 64.008 40.5342 61.8042 39.1354C65.0814 38.5463 68.5202 37.7783 72.0414 36.8304C75.5631 35.8824 78.9238 34.8201 82.0557 33.6838ZM87.8278 17.7522C89.3749 17.6531 90.8312 17.6119 92.1817 17.6278C95.3645 17.6652 97.7111 18.018 99.2036 18.5212C99.4971 18.6202 99.7255 18.7129 99.9023 18.7945C99.7898 18.9539 99.6382 19.1491 99.4333 19.3822C98.391 20.5677 96.5344 22.0518 93.7968 23.683C92.634 24.3756 91.3511 25.0722 89.9603 25.7642C89.7919 22.8973 89.0423 20.1875 87.8278 17.7522ZM48.8461 26.5939C48.841 26.8525 48.841 27.1115 48.8457 27.3707C48.8436 27.2473 48.8423 27.1238 48.8423 27C48.8423 26.8643 48.8436 26.729 48.8461 26.5939ZM51.0113 36.2478C49.7968 33.8125 49.0468 31.1027 48.8784 28.2359C47.4876 28.9278 46.2047 29.6244 45.0423 30.317C42.3043 31.9482 40.4478 33.4323 39.4057 34.6178C39.2008 34.8509 39.0489 35.0461 38.9366 35.2055C39.1132 35.2871 39.3419 35.3798 39.6353 35.4788C41.1278 35.982 43.4742 36.3348 46.6574 36.3722C48.0075 36.3881 49.4638 36.3469 51.0113 36.2478ZM100.447 19.1237C100.447 19.1238 100.441 19.1182 100.431 19.1062C100.443 19.1174 100.448 19.1235 100.447 19.1237ZM100.205 18.2591C100.208 18.2436 100.21 18.2356 100.211 18.2355C100.211 18.2355 100.21 18.2432 100.205 18.2591ZM38.3984 34.8829C38.3941 34.8783 38.3916 34.8762 38.3912 34.8764C38.3909 34.8765 38.3922 34.8781 38.3952 34.8813C38.3979 34.8843 38.4021 34.8884 38.408 34.8938C38.4042 34.8893 38.401 34.8856 38.3984 34.8829ZM38.634 35.7409C38.6312 35.7564 38.6287 35.7644 38.6281 35.7645C38.6275 35.7646 38.6289 35.7568 38.634 35.7409Z" fill="white"/>
</svg>
