<svg width="995" height="128" viewBox="0 0 995 128" fill="none" xmlns="http://www.w3.org/2000/svg">
<g clip-path="url(#clip0_64_2)">
<path d="M369.369 42.4545V53.8182H335.705V42.4545H369.369ZM343.411 97V38.5128C343.411 34.5592 344.18 31.2803 345.719 28.6761C347.281 26.072 349.412 24.1188 352.111 22.8168C354.81 21.5147 357.875 20.8636 361.308 20.8636C363.628 20.8636 365.747 21.0412 367.665 21.3963C369.606 21.7514 371.05 22.071 371.997 22.3551L369.298 33.7188C368.706 33.5294 367.973 33.3518 367.097 33.1861C366.244 33.0204 365.368 32.9375 364.469 32.9375C362.243 32.9375 360.693 33.4583 359.817 34.5C358.941 35.518 358.503 36.9503 358.503 38.7969V97H343.411ZM401.303 98.0653C395.787 98.0653 391.016 96.8935 386.992 94.5497C382.991 92.1823 379.901 88.8916 377.723 84.6776C375.545 80.4399 374.456 75.5275 374.456 69.9403C374.456 64.3059 375.545 59.3816 377.723 55.1676C379.901 50.9299 382.991 47.6392 386.992 45.2955C391.016 42.928 395.787 41.7443 401.303 41.7443C406.819 41.7443 411.578 42.928 415.578 45.2955C419.603 47.6392 422.704 50.9299 424.882 55.1676C427.06 59.3816 428.15 64.3059 428.15 69.9403C428.15 75.5275 427.06 80.4399 424.882 84.6776C422.704 88.8916 419.603 92.1823 415.578 94.5497C411.578 96.8935 406.819 98.0653 401.303 98.0653ZM401.374 86.3466C403.883 86.3466 405.979 85.6364 407.659 84.2159C409.34 82.7718 410.607 80.8068 411.459 78.321C412.335 75.8352 412.773 73.0062 412.773 69.8338C412.773 66.6615 412.335 63.8324 411.459 61.3466C410.607 58.8608 409.34 56.8958 407.659 55.4517C405.979 54.0076 403.883 53.2855 401.374 53.2855C398.841 53.2855 396.71 54.0076 394.982 55.4517C393.277 56.8958 391.987 58.8608 391.111 61.3466C390.259 63.8324 389.833 66.6615 389.833 69.8338C389.833 73.0062 390.259 75.8352 391.111 78.321C391.987 80.8068 393.277 82.7718 394.982 84.2159C396.71 85.6364 398.841 86.3466 401.374 86.3466ZM447.379 97L432.535 42.4545H447.841L456.292 79.1023H456.789L465.596 42.4545H480.618L489.566 78.8892H490.028L498.338 42.4545H513.608L498.799 97H482.784L473.409 62.696H472.734L463.359 97H447.379ZM537.232 98.0298C533.751 98.0298 530.65 97.4261 527.928 96.2188C525.205 94.9877 523.051 93.1766 521.464 90.7855C519.902 88.3707 519.121 85.3641 519.121 81.7656C519.121 78.7353 519.677 76.1903 520.79 74.1307C521.902 72.071 523.418 70.4138 525.335 69.1591C527.253 67.9044 529.431 66.9574 531.869 66.3182C534.331 65.679 536.912 65.2292 539.611 64.9688C542.783 64.6373 545.34 64.3295 547.281 64.0455C549.223 63.7377 550.631 63.2879 551.507 62.696C552.383 62.1042 552.821 61.2282 552.821 60.0682V59.8551C552.821 57.6061 552.111 55.866 550.69 54.6349C549.294 53.4039 547.305 52.7884 544.724 52.7884C542.002 52.7884 539.836 53.392 538.226 54.5994C536.616 55.7831 535.551 57.2746 535.03 59.0739L521.038 57.9375C521.749 54.6231 523.145 51.7585 525.229 49.3438C527.312 46.9053 529.999 45.035 533.29 43.733C536.604 42.4072 540.439 41.7443 544.795 41.7443C547.826 41.7443 550.726 42.0994 553.496 42.8097C556.289 43.5199 558.763 44.6207 560.918 46.1122C563.096 47.6037 564.812 49.5213 566.067 51.8651C567.321 54.1851 567.949 56.9669 567.949 60.2102V97H553.602V89.4361H553.176C552.3 91.1406 551.128 92.6439 549.661 93.946C548.193 95.2244 546.429 96.2306 544.369 96.9645C542.31 97.6747 539.93 98.0298 537.232 98.0298ZM541.564 87.5895C543.789 87.5895 545.754 87.1515 547.459 86.2756C549.163 85.3759 550.501 84.1686 551.472 82.6534C552.442 81.1383 552.928 79.4219 552.928 77.5043V71.7159C552.454 72.0237 551.803 72.3078 550.974 72.5682C550.17 72.8049 549.258 73.0298 548.24 73.2429C547.222 73.4323 546.204 73.6098 545.186 73.7756C544.168 73.9176 543.245 74.0478 542.416 74.1662C540.641 74.4266 539.09 74.8409 537.764 75.4091C536.438 75.9773 535.409 76.7467 534.675 77.7173C533.941 78.6643 533.574 79.848 533.574 81.2685C533.574 83.3281 534.32 84.9025 535.811 85.9915C537.326 87.0568 539.244 87.5895 541.564 87.5895ZM579.685 97V42.4545H594.352V51.9716H594.92C595.914 48.5862 597.583 46.0294 599.927 44.3011C602.271 42.5492 604.969 41.6733 608.023 41.6733C608.781 41.6733 609.598 41.7206 610.474 41.8153C611.35 41.91 612.119 42.0402 612.782 42.206V55.6293C612.072 55.4162 611.089 55.2268 609.835 55.0611C608.58 54.8954 607.432 54.8125 606.39 54.8125C604.165 54.8125 602.176 55.2978 600.424 56.2685C598.696 57.2154 597.323 58.5412 596.305 60.2457C595.31 61.9503 594.813 63.9152 594.813 66.1406V97H579.685ZM638.164 97.8878C634.021 97.8878 630.268 96.8224 626.907 94.6918C623.569 92.5374 620.917 89.3769 618.952 85.2102C617.011 81.0199 616.04 75.8826 616.04 69.7983C616.04 63.5483 617.046 58.3518 619.059 54.2088C621.071 50.0421 623.746 46.929 627.084 44.8693C630.446 42.786 634.127 41.7443 638.128 41.7443C641.182 41.7443 643.727 42.2652 645.763 43.3068C647.823 44.3248 649.48 45.6032 650.735 47.142C652.013 48.6572 652.984 50.1487 653.647 51.6165H654.108V24.2727H669.201V97H654.286V88.2642H653.647C652.936 89.7794 651.93 91.2827 650.628 92.7741C649.35 94.242 647.681 95.4612 645.621 96.4318C643.585 97.4025 641.099 97.8878 638.164 97.8878ZM642.958 85.8494C645.396 85.8494 647.456 85.1866 649.137 83.8608C650.841 82.5114 652.143 80.6293 653.043 78.2145C653.966 75.7997 654.428 72.9706 654.428 69.7273C654.428 66.4839 653.978 63.6667 653.078 61.2756C652.179 58.8845 650.877 57.0379 649.172 55.7358C647.468 54.4337 645.396 53.7827 642.958 53.7827C640.472 53.7827 638.377 54.4574 636.672 55.8068C634.968 57.1562 633.677 59.0265 632.801 61.4176C631.926 63.8087 631.488 66.5786 631.488 69.7273C631.488 72.8996 631.926 75.705 632.801 78.1435C633.701 80.5582 634.991 82.4522 636.672 83.8253C638.377 85.1747 640.472 85.8494 642.958 85.8494ZM727.022 58.0085L713.173 58.8608C712.936 57.6771 712.427 56.6117 711.646 55.6648C710.864 54.6941 709.835 53.9247 708.556 53.3565C707.301 52.7647 705.798 52.4688 704.046 52.4688C701.702 52.4688 699.726 52.9659 698.116 53.9602C696.506 54.9309 695.701 56.233 695.701 57.8665C695.701 59.1686 696.222 60.2694 697.263 61.169C698.305 62.0687 700.093 62.7907 702.626 63.3352L712.498 65.3239C717.801 66.4129 721.754 68.1648 724.359 70.5795C726.963 72.9943 728.265 76.1667 728.265 80.0966C728.265 83.6714 727.211 86.8082 725.104 89.5071C723.021 92.206 720.156 94.313 716.511 95.8281C712.888 97.3196 708.71 98.0653 703.975 98.0653C696.754 98.0653 691.002 96.562 686.717 93.5554C682.455 90.5251 679.958 86.4058 679.224 81.1974L694.103 80.4162C694.553 82.6179 695.642 84.2988 697.37 85.4588C699.098 86.5952 701.312 87.1634 704.011 87.1634C706.662 87.1634 708.793 86.6544 710.403 85.6364C712.036 84.5947 712.865 83.2571 712.888 81.6236C712.865 80.2505 712.285 79.1259 711.148 78.25C710.012 77.3504 708.26 76.6638 705.893 76.1903L696.447 74.3082C691.12 73.2429 687.155 71.3963 684.55 68.7685C681.97 66.1406 680.68 62.7907 680.68 58.7188C680.68 55.215 681.627 52.1965 683.521 49.6634C685.438 47.1302 688.125 45.1771 691.582 43.804C695.062 42.4309 699.134 41.7443 703.798 41.7443C710.687 41.7443 716.108 43.2003 720.062 46.1122C724.039 49.0241 726.359 52.9896 727.022 58.0085ZM752.919 24.2727V97H737.791V24.2727H752.919ZM780.591 98.0298C777.111 98.0298 774.009 97.4261 771.287 96.2188C768.564 94.9877 766.41 93.1766 764.824 90.7855C763.261 88.3707 762.48 85.3641 762.48 81.7656C762.48 78.7353 763.036 76.1903 764.149 74.1307C765.262 72.071 766.777 70.4138 768.695 69.1591C770.612 67.9044 772.79 66.9574 775.229 66.3182C777.691 65.679 780.271 65.2292 782.97 64.9688C786.143 64.6373 788.699 64.3295 790.641 64.0455C792.582 63.7377 793.991 63.2879 794.866 62.696C795.742 62.1042 796.18 61.2282 796.18 60.0682V59.8551C796.18 57.6061 795.47 55.866 794.05 54.6349C792.653 53.4039 790.664 52.7884 788.084 52.7884C785.361 52.7884 783.195 53.392 781.585 54.5994C779.975 55.7831 778.91 57.2746 778.389 59.0739L764.398 57.9375C765.108 54.6231 766.505 51.7585 768.588 49.3438C770.671 46.9053 773.358 45.035 776.649 43.733C779.964 42.4072 783.799 41.7443 788.155 41.7443C791.185 41.7443 794.085 42.0994 796.855 42.8097C799.649 43.5199 802.123 44.6207 804.277 46.1122C806.455 47.6037 808.171 49.5213 809.426 51.8651C810.681 54.1851 811.308 56.9669 811.308 60.2102V97H796.962V89.4361H796.536C795.66 91.1406 794.488 92.6439 793.02 93.946C791.552 95.2244 789.788 96.2306 787.729 96.9645C785.669 97.6747 783.29 98.0298 780.591 98.0298ZM784.923 87.5895C787.149 87.5895 789.114 87.1515 790.818 86.2756C792.523 85.3759 793.86 84.1686 794.831 82.6534C795.802 81.1383 796.287 79.4219 796.287 77.5043V71.7159C795.813 72.0237 795.162 72.3078 794.334 72.5682C793.529 72.8049 792.617 73.0298 791.599 73.2429C790.581 73.4323 789.563 73.6098 788.545 73.7756C787.527 73.9176 786.604 74.0478 785.776 74.1662C784 74.4266 782.449 74.8409 781.124 75.4091C779.798 75.9773 778.768 76.7467 778.034 77.7173C777.3 78.6643 776.933 79.848 776.933 81.2685C776.933 83.3281 777.679 84.9025 779.17 85.9915C780.686 87.0568 782.603 87.5895 784.923 87.5895ZM868.428 58.0085L854.579 58.8608C854.342 57.6771 853.833 56.6117 853.052 55.6648C852.271 54.6941 851.241 53.9247 849.962 53.3565C848.708 52.7647 847.204 52.4688 845.452 52.4688C843.109 52.4688 841.132 52.9659 839.522 53.9602C837.912 54.9309 837.107 56.233 837.107 57.8665C837.107 59.1686 837.628 60.2694 838.67 61.169C839.711 62.0687 841.499 62.7907 844.032 63.3352L853.904 65.3239C859.207 66.4129 863.161 68.1648 865.765 70.5795C868.369 72.9943 869.671 76.1667 869.671 80.0966C869.671 83.6714 868.618 86.8082 866.511 89.5071C864.427 92.206 861.563 94.313 857.917 95.8281C854.295 97.3196 850.116 98.0653 845.381 98.0653C838.161 98.0653 832.408 96.562 828.123 93.5554C823.862 90.5251 821.364 86.4058 820.63 81.1974L835.509 80.4162C835.959 82.6179 837.048 84.2988 838.776 85.4588C840.504 86.5952 842.718 87.1634 845.417 87.1634C848.068 87.1634 850.199 86.6544 851.809 85.6364C853.442 84.5947 854.271 83.2571 854.295 81.6236C854.271 80.2505 853.691 79.1259 852.555 78.25C851.418 77.3504 849.666 76.6638 847.299 76.1903L837.853 74.3082C832.526 73.2429 828.561 71.3963 825.957 68.7685C823.376 66.1406 822.086 62.7907 822.086 58.7188C822.086 55.215 823.033 52.1965 824.927 49.6634C826.844 47.1302 829.531 45.1771 832.988 43.804C836.468 42.4309 840.54 41.7443 845.204 41.7443C852.093 41.7443 857.514 43.2003 861.468 46.1122C865.445 49.0241 867.765 52.9896 868.428 58.0085ZM894.325 65.4659V97H879.197V24.2727H893.899V52.0781H894.538C895.769 48.8584 897.758 46.3371 900.504 44.5142C903.25 42.6676 906.695 41.7443 910.838 41.7443C914.626 41.7443 917.928 42.5729 920.745 44.2301C923.586 45.8636 925.788 48.2192 927.35 51.2969C928.937 54.3509 929.718 58.0085 929.694 62.2699V97H914.566V64.9688C914.59 61.607 913.738 58.991 912.01 57.1207C910.305 55.2505 907.914 54.3153 904.836 54.3153C902.777 54.3153 900.954 54.7533 899.368 55.6293C897.805 56.5052 896.574 57.7836 895.674 59.4645C894.798 61.1217 894.349 63.1222 894.325 65.4659Z" fill="black"/>
<path fill-rule="evenodd" clip-rule="evenodd" d="M312.935 65.1067L260.935 117.607L250.278 107.051L297 59.8799L250.329 13.6577L260.884 3L312.884 54.5L318.213 59.7779L312.935 65.1067ZM5.27811 55.551L57.2781 3.05099L67.9353 13.6067L21.2134 60.7779L67.8843 107L57.3291 117.658L5.32911 66.1577L0 60.8799L5.27811 55.551ZM145.607 92.3289C163.28 92.3289 177.607 78.002 177.607 60.3289C177.607 42.6557 163.28 28.3289 145.607 28.3289C127.934 28.3289 113.607 42.6557 113.607 60.3289C113.607 78.002 127.934 92.3289 145.607 92.3289ZM145.607 107.329C156.762 107.329 167.009 103.443 175.069 96.9504C178.47 103.136 185.049 107.329 192.607 107.329C203.652 107.329 212.607 98.3745 212.607 87.3289C212.607 76.2832 203.652 67.3289 192.607 67.3289C192.433 67.3289 192.26 67.3311 192.088 67.3354C192.43 65.0496 192.607 62.7099 192.607 60.3289C192.607 34.3715 171.564 13.3289 145.607 13.3289C119.649 13.3289 98.6067 34.3715 98.6067 60.3289C98.6067 86.2862 119.649 107.329 145.607 107.329ZM192.607 92.3289C195.368 92.3289 197.607 90.0903 197.607 87.3289C197.607 84.5674 195.368 82.3289 192.607 82.3289C189.845 82.3289 187.607 84.5674 187.607 87.3289C187.607 90.0903 189.845 92.3289 192.607 92.3289Z" fill="black"/>
</g>
<defs>
<clipPath id="clip0_64_2">
<rect width="995" height="128" fill="white"/>
</clipPath>
</defs>
</svg>
