<svg width="167" height="150" viewBox="0 0 167 150" fill="none" xmlns="http://www.w3.org/2000/svg">
<path fill-rule="evenodd" clip-rule="evenodd" d="M113.394 116.843C107.697 127.64 96.3594 135 83.3028 135C76.6358 135 70.4169 133.081 65.1685 129.765C72.9729 128.369 81.1612 126.548 89.5464 124.302C97.9329 122.055 105.936 119.536 113.394 116.843ZM117.098 104.751C108.049 108.337 97.8808 111.716 86.9582 114.642C76.036 117.569 65.5413 119.727 55.9117 121.146C51.7576 115.508 49.3028 108.541 49.3028 101C49.3028 99.7321 49.3722 98.4804 49.5074 97.2486C49.9823 92.9219 51.269 88.8394 53.2119 85.1569C58.9085 74.3597 70.2462 67 83.3028 67C89.9698 67 96.1887 68.919 101.437 72.2347C105.035 74.5074 108.176 77.4365 110.694 80.8536C114.848 86.492 117.303 93.4593 117.303 101C117.303 102.268 117.233 103.52 117.098 104.751ZM131.577 109.45C127.573 132.485 107.483 150 83.3028 150C68.2141 150 54.7182 143.18 45.7297 132.454C20.5752 134.82 2.50594 131.72 0.238217 123.257C-2.02925 114.795 12.0659 103.077 35.0287 92.5497C39.0329 69.5148 59.1225 52 83.3028 52C98.3915 52 111.887 58.82 120.876 69.5456C146.03 67.1799 164.1 70.2797 166.367 78.7429C168.635 87.2052 154.54 98.9227 131.577 109.45ZM127.138 79.0794C130.823 78.8443 134.291 78.7468 137.506 78.7844C145.086 78.8731 150.673 79.7093 154.227 80.9022C154.926 81.1367 155.471 81.3565 155.891 81.5499C155.624 81.9278 155.262 82.3904 154.774 82.9429C152.293 85.753 147.872 89.2709 141.352 93.1375C138.584 94.7792 135.529 96.4304 132.217 98.0705C131.816 91.275 130.03 84.8519 127.138 79.0794ZM34.3121 100.037C34.3 100.651 34.2995 101.267 34.3106 101.883C34.3054 101.589 34.3028 101.295 34.3028 101C34.3028 100.678 34.3059 100.357 34.3121 100.037ZM34.3889 103.929C31.077 105.57 28.0216 107.221 25.2533 108.863C18.7335 112.729 14.3128 116.247 11.8313 119.057C11.3434 119.61 10.9816 120.072 10.714 120.45C11.1346 120.644 11.6793 120.863 12.3781 121.098C15.9322 122.291 21.5196 123.127 29.0991 123.216C32.3145 123.253 35.7828 123.156 39.4675 122.921C36.5752 117.148 34.7896 110.725 34.3889 103.929ZM157.19 82.3301C157.189 82.3306 157.174 82.3173 157.15 82.2887C157.179 82.3154 157.191 82.3297 157.19 82.3301ZM156.612 80.2808C156.619 80.244 156.625 80.2252 156.626 80.225C156.627 80.2248 156.624 80.2432 156.612 80.2808ZM9.4155 119.67C9.4168 119.669 9.43144 119.683 9.45554 119.711C9.42625 119.685 9.4142 119.67 9.4155 119.67ZM9.99354 121.719C9.98698 121.756 9.98095 121.775 9.97958 121.775C9.97821 121.775 9.98149 121.757 9.99354 121.719Z" fill="black"/>
<g clip-path="url(#clip0_280_2)">
<path d="M128.381 28.9972C129.957 28.9597 131.478 28.1195 132.316 26.6682C133.611 24.4253 132.829 21.5521 130.57 20.2476C128.31 18.9431 125.431 19.7031 124.137 21.946C123.293 23.4074 123.332 25.1347 124.087 26.5181L111.514 34.7662C109.517 36.0762 106.799 35.2108 105.918 32.9834L100.986 20.488C101.89 20.1032 102.683 19.4379 103.21 18.5245C104.505 16.2816 103.724 13.4084 101.465 12.1039C99.2051 10.7994 96.3262 11.5594 95.0312 13.8023C93.7363 16.0452 94.5176 18.9184 96.7771 20.2229C96.7975 20.2347 96.8282 20.2524 96.8486 20.2642L86.7905 48.4757C85.5716 51.8856 86.9801 55.7028 90.1495 57.5327L118.49 73.8952C121.649 75.7191 125.654 75.0405 128.013 72.2757L147.416 49.4593C147.437 49.4711 147.467 49.4889 147.488 49.5007C149.747 50.8052 152.626 50.0452 153.921 47.8023C155.216 45.5594 154.435 42.6862 152.175 41.3817C149.916 40.0772 147.037 40.8372 145.742 43.0801C145.215 43.9934 145.035 45.0129 145.154 45.988L131.866 47.9646C129.497 48.315 127.388 46.3942 127.524 44.01L128.381 28.9972Z" fill="#F0DB4F"/>
</g>
<defs>
<clipPath id="clip0_280_2">
<rect width="68" height="60" fill="white" transform="translate(103) rotate(30)"/>
</clipPath>
</defs>
</svg>
