<svg width="908" height="58" viewBox="0 0 908 58" fill="none" xmlns="http://www.w3.org/2000/svg">
<g clip-path="url(#clip0_443_13)">
<path d="M18.15 32.81C18.15 31.6 18.425 30.555 18.975 29.675C19.5617 28.7583 20.295 27.9517 21.175 27.255C22.0917 26.5217 23.045 25.8433 24.035 25.22C25.0617 24.5967 26.015 24.01 26.895 23.46C27.8117 22.8733 28.545 22.2683 29.095 21.645C29.6817 20.985 29.975 20.2517 29.975 19.445C29.975 18.7483 29.7367 18.1617 29.26 17.685C28.82 17.1717 28.1783 16.75 27.335 16.42C26.5283 16.09 25.5567 15.8517 24.42 15.705C23.32 15.5217 22.0917 15.43 20.735 15.43C18.6083 15.43 16.7017 15.6317 15.015 16.035C13.3283 16.4383 11.8433 17.0433 10.56 17.85C10.12 18.2533 9.80833 18.565 9.625 18.785C9.47833 19.005 9.405 19.2617 9.405 19.555L9.075 19.885L8.69 19.445L5.005 16.035C6.215 14.825 7.55333 13.7983 9.02 12.955C10.4867 12.1117 12.1917 11.47 14.135 11.03C16.115 10.5533 18.4433 10.315 21.12 10.315C24.09 10.315 26.73 10.7 29.04 11.47C31.35 12.2033 33.1467 13.2483 34.43 14.605C35.75 15.925 36.41 17.4283 36.41 19.115C36.41 20.4717 36.1167 21.645 35.53 22.635C34.9433 23.5883 34.1917 24.4317 33.275 25.165C32.3583 25.8983 31.3867 26.5583 30.36 27.145C29.37 27.7317 28.4167 28.3183 27.5 28.905C26.5833 29.455 25.8317 30.06 25.245 30.72C24.6583 31.38 24.365 32.15 24.365 33.03V35.285H18.15V32.81ZM21.395 47.66C20.1483 47.66 19.085 47.22 18.205 46.34C17.325 45.46 16.885 44.415 16.885 43.205C16.885 41.995 17.325 40.9683 18.205 40.125C19.085 39.245 20.1483 38.805 21.395 38.805C22.605 38.805 23.6317 39.245 24.475 40.125C25.355 40.9683 25.795 41.995 25.795 43.205C25.795 44.415 25.355 45.46 24.475 46.34C23.6317 47.22 22.605 47.66 21.395 47.66ZM59.4 32.81C59.4 31.6 59.675 30.555 60.225 29.675C60.8117 28.7583 61.545 27.9517 62.425 27.255C63.3417 26.5217 64.295 25.8433 65.285 25.22C66.3117 24.5967 67.265 24.01 68.145 23.46C69.0617 22.8733 69.795 22.2683 70.345 21.645C70.9317 20.985 71.225 20.2517 71.225 19.445C71.225 18.7483 70.9867 18.1617 70.51 17.685C70.07 17.1717 69.4283 16.75 68.585 16.42C67.7783 16.09 66.8067 15.8517 65.67 15.705C64.57 15.5217 63.3417 15.43 61.985 15.43C59.8583 15.43 57.9517 15.6317 56.265 16.035C54.5783 16.4383 53.0933 17.0433 51.81 17.85C51.37 18.2533 51.0583 18.565 50.875 18.785C50.7283 19.005 50.655 19.2617 50.655 19.555L50.325 19.885L49.94 19.445L46.255 16.035C47.465 14.825 48.8033 13.7983 50.27 12.955C51.7367 12.1117 53.4417 11.47 55.385 11.03C57.365 10.5533 59.6933 10.315 62.37 10.315C65.34 10.315 67.98 10.7 70.29 11.47C72.6 12.2033 74.3967 13.2483 75.68 14.605C77 15.925 77.66 17.4283 77.66 19.115C77.66 20.4717 77.3667 21.645 76.78 22.635C76.1933 23.5883 75.4417 24.4317 74.525 25.165C73.6083 25.8983 72.6367 26.5583 71.61 27.145C70.62 27.7317 69.6667 28.3183 68.75 28.905C67.8333 29.455 67.0817 30.06 66.495 30.72C65.9083 31.38 65.615 32.15 65.615 33.03V35.285H59.4V32.81ZM62.645 47.66C61.3983 47.66 60.335 47.22 59.455 46.34C58.575 45.46 58.135 44.415 58.135 43.205C58.135 41.995 58.575 40.9683 59.455 40.125C60.335 39.245 61.3983 38.805 62.645 38.805C63.855 38.805 64.8817 39.245 65.725 40.125C66.605 40.9683 67.045 41.995 67.045 43.205C67.045 44.415 66.605 45.46 65.725 46.34C64.8817 47.22 63.855 47.66 62.645 47.66ZM102.52 47.66C101.273 47.66 100.21 47.22 99.33 46.34C98.4867 45.46 98.065 44.415 98.065 43.205C98.065 41.995 98.4867 40.9683 99.33 40.125C100.21 39.245 101.273 38.805 102.52 38.805C103.73 38.805 104.757 39.245 105.6 40.125C106.48 40.9683 106.92 41.995 106.92 43.205C106.92 44.415 106.48 45.46 105.6 46.34C104.757 47.22 103.73 47.66 102.52 47.66ZM188.265 47.605C185.478 47.605 182.893 47.2933 180.51 46.67C178.163 46.01 176.11 45.0933 174.35 43.92C172.59 42.7467 171.215 41.3533 170.225 39.74C169.272 38.09 168.795 36.275 168.795 34.295C168.795 32.2783 169.272 30.445 170.225 28.795C171.215 27.145 172.59 25.7333 174.35 24.56C176.11 23.35 178.163 22.4333 180.51 21.81C182.893 21.15 185.46 20.82 188.21 20.82C191.437 20.82 194.297 21.2417 196.79 22.085C199.32 22.9283 201.355 24.1017 202.895 25.605L199.375 29.84L198.99 30.225L198.66 29.95C198.623 29.6567 198.532 29.4 198.385 29.18C198.238 28.9233 197.927 28.6117 197.45 28.245C196.167 27.475 194.718 26.9433 193.105 26.65C191.492 26.32 189.713 26.155 187.77 26.155C186.267 26.155 184.8 26.3383 183.37 26.705C181.94 27.035 180.638 27.53 179.465 28.19C178.328 28.85 177.43 29.675 176.77 30.665C176.11 31.655 175.78 32.81 175.78 34.13C175.78 35.4133 176.11 36.55 176.77 37.54C177.467 38.53 178.402 39.3733 179.575 40.07C180.748 40.7667 182.105 41.3167 183.645 41.72C185.185 42.0867 186.835 42.27 188.595 42.27C189.805 42.27 191.033 42.16 192.28 41.94C193.563 41.72 194.773 41.3717 195.91 40.895C197.083 40.4183 198.11 39.8317 198.99 39.135L202.4 43.59C200.493 45.02 198.312 46.0467 195.855 46.67C193.435 47.2933 190.905 47.605 188.265 47.605ZM226.765 47.495C223.208 47.5317 220.092 47 217.415 45.9C214.738 44.7633 212.63 43.1867 211.09 41.17C209.587 39.1533 208.835 36.8433 208.835 34.24C208.835 31.6733 209.587 29.3817 211.09 27.365C212.63 25.3483 214.738 23.7533 217.415 22.58C220.092 21.4067 223.208 20.82 226.765 20.82C230.322 20.82 233.42 21.4067 236.06 22.58C238.737 23.7533 240.808 25.3483 242.275 27.365C243.742 29.3817 244.475 31.6733 244.475 34.24C244.475 36.8067 243.742 39.0983 242.275 41.115C240.808 43.1317 238.737 44.7083 236.06 45.845C233.42 46.945 230.322 47.495 226.765 47.495ZM226.765 42.16C228.928 42.16 230.817 41.8483 232.43 41.225C234.043 40.565 235.29 39.6483 236.17 38.475C237.087 37.265 237.545 35.835 237.545 34.185C237.545 32.4983 237.087 31.0683 236.17 29.895C235.29 28.685 234.043 27.7683 232.43 27.145C230.817 26.485 228.928 26.155 226.765 26.155C224.675 26.155 222.787 26.485 221.1 27.145C219.45 27.7683 218.148 28.685 217.195 29.895C216.242 31.0683 215.765 32.4983 215.765 34.185C215.765 35.835 216.242 37.265 217.195 38.475C218.148 39.6483 219.45 40.565 221.1 41.225C222.75 41.8483 224.638 42.16 226.765 42.16ZM225.005 19.5L220.605 16.915L228.58 8.665L234.3 12.35L225.005 19.5ZM294.305 47V41.72H306.075V15.54H294.8V10.26H312.785V41.72H324.445V47H294.305ZM350.515 47.495C346.958 47.5317 343.842 47 341.165 45.9C338.488 44.7633 336.38 43.1867 334.84 41.17C333.337 39.1533 332.585 36.8433 332.585 34.24C332.585 31.6733 333.337 29.3817 334.84 27.365C336.38 25.3483 338.488 23.7533 341.165 22.58C343.842 21.4067 346.958 20.82 350.515 20.82C354.072 20.82 357.17 21.4067 359.81 22.58C362.487 23.7533 364.558 25.3483 366.025 27.365C367.492 29.3817 368.225 31.6733 368.225 34.24C368.225 36.8067 367.492 39.0983 366.025 41.115C364.558 43.1317 362.487 44.7083 359.81 45.845C357.17 46.945 354.072 47.495 350.515 47.495ZM350.515 42.16C352.678 42.16 354.567 41.8483 356.18 41.225C357.793 40.565 359.04 39.6483 359.92 38.475C360.837 37.265 361.295 35.835 361.295 34.185C361.295 32.4983 360.837 31.0683 359.92 29.895C359.04 28.685 357.793 27.7683 356.18 27.145C354.567 26.485 352.678 26.155 350.515 26.155C348.425 26.155 346.537 26.485 344.85 27.145C343.2 27.7683 341.898 28.685 340.945 29.895C339.992 31.0683 339.515 32.4983 339.515 34.185C339.515 35.835 339.992 37.265 340.945 38.475C341.898 39.6483 343.2 40.565 344.85 41.225C346.5 41.8483 348.388 42.16 350.515 42.16ZM391.215 56.625C388.538 56.6617 386.1 56.5333 383.9 56.24C381.7 55.9467 379.812 55.5067 378.235 54.92C376.658 54.37 375.43 53.6733 374.55 52.83C373.707 52.0233 373.285 51.0883 373.285 50.025C373.285 49.035 373.597 48.155 374.22 47.385C374.88 46.615 375.76 45.9733 376.86 45.46C377.96 44.91 379.188 44.47 380.545 44.14L384.89 45.405C383.9 45.6983 382.947 46.01 382.03 46.34C381.15 46.67 380.417 47.0367 379.83 47.44C379.28 47.88 379.005 48.3933 379.005 48.98C379.005 49.42 379.28 49.805 379.83 50.135C380.417 50.5017 381.242 50.795 382.305 51.015C383.368 51.2717 384.67 51.455 386.21 51.565C387.787 51.7117 389.565 51.785 391.545 51.785C393.928 51.785 395.963 51.675 397.65 51.455C399.337 51.235 400.638 50.905 401.555 50.465C402.472 50.025 402.93 49.4933 402.93 48.87C402.93 48.32 402.618 47.8617 401.995 47.495C401.408 47.165 400.4 46.9267 398.97 46.78C397.54 46.5967 395.578 46.505 393.085 46.505C391.142 46.5417 389.327 46.505 387.64 46.395C385.953 46.285 384.413 46.1017 383.02 45.845C381.627 45.5517 380.417 45.2033 379.39 44.8C378.4 44.3967 377.63 43.9017 377.08 43.315C376.567 42.6917 376.31 41.9583 376.31 41.115C376.31 40.0517 376.805 39.0617 377.795 38.145C378.785 37.2283 380.068 36.385 381.645 35.615L385.55 37.155C385 37.4483 384.432 37.7233 383.845 37.98C383.295 38.2367 382.818 38.4933 382.415 38.75C382.048 39.0067 381.865 39.3183 381.865 39.685C381.865 40.1617 382.287 40.5467 383.13 40.84C384.01 41.0967 385.385 41.28 387.255 41.39C389.125 41.5 391.582 41.555 394.625 41.555C397.338 41.555 399.612 41.72 401.445 42.05C403.278 42.38 404.727 42.8567 405.79 43.48C406.89 44.1033 407.66 44.8367 408.1 45.68C408.577 46.4867 408.815 47.3667 408.815 48.32C408.815 49.3833 408.485 50.3917 407.825 51.345C407.202 52.335 406.193 53.215 404.8 53.985C403.407 54.7917 401.592 55.4333 399.355 55.91C397.118 56.3867 394.405 56.625 391.215 56.625ZM389.84 38.2C386.943 38.2 384.432 37.7967 382.305 36.99C380.178 36.1833 378.528 35.12 377.355 33.8C376.218 32.48 375.65 31.0317 375.65 29.455C375.65 27.805 376.218 26.3383 377.355 25.055C378.528 23.735 380.178 22.69 382.305 21.92C384.432 21.1133 386.943 20.71 389.84 20.71C392.7 20.71 395.193 21.0767 397.32 21.81C399.447 22.5067 401.097 23.515 402.27 24.835C403.443 26.1183 404.03 27.6583 404.03 29.455C404.03 31.1417 403.425 32.645 402.215 33.965C401.042 35.285 399.392 36.33 397.265 37.1C395.175 37.8333 392.7 38.2 389.84 38.2ZM389.84 33.47C391.527 33.47 392.993 33.305 394.24 32.975C395.523 32.645 396.513 32.1867 397.21 31.6C397.907 30.9767 398.255 30.2433 398.255 29.4C398.255 28.5933 397.907 27.915 397.21 27.365C396.513 26.7783 395.523 26.3383 394.24 26.045C392.957 25.715 391.49 25.55 389.84 25.55C388.373 25.55 386.998 25.715 385.715 26.045C384.432 26.3383 383.387 26.7783 382.58 27.365C381.81 27.915 381.425 28.5933 381.425 29.4C381.425 30.2067 381.81 30.9217 382.58 31.545C383.35 32.1317 384.358 32.6083 385.605 32.975C386.888 33.305 388.3 33.47 389.84 33.47ZM401.665 26.76L398.695 23.68C400.272 22.7633 401.958 22.0667 403.755 21.59C405.552 21.1133 407.642 20.93 410.025 21.04L410.905 25.275C409.145 25.0917 407.477 25.11 405.9 25.33C404.323 25.55 402.912 26.0267 401.665 26.76ZM433.015 47.495C429.458 47.5317 426.342 47 423.665 45.9C420.988 44.7633 418.88 43.1867 417.34 41.17C415.837 39.1533 415.085 36.8433 415.085 34.24C415.085 31.6733 415.837 29.3817 417.34 27.365C418.88 25.3483 420.988 23.7533 423.665 22.58C426.342 21.4067 429.458 20.82 433.015 20.82C436.572 20.82 439.67 21.4067 442.31 22.58C444.987 23.7533 447.058 25.3483 448.525 27.365C449.992 29.3817 450.725 31.6733 450.725 34.24C450.725 36.8067 449.992 39.0983 448.525 41.115C447.058 43.1317 444.987 44.7083 442.31 45.845C439.67 46.945 436.572 47.495 433.015 47.495ZM433.015 42.16C435.178 42.16 437.067 41.8483 438.68 41.225C440.293 40.565 441.54 39.6483 442.42 38.475C443.337 37.265 443.795 35.835 443.795 34.185C443.795 32.4983 443.337 31.0683 442.42 29.895C441.54 28.685 440.293 27.7683 438.68 27.145C437.067 26.485 435.178 26.155 433.015 26.155C430.925 26.155 429.037 26.485 427.35 27.145C425.7 27.7683 424.398 28.685 423.445 29.895C422.492 31.0683 422.015 32.4983 422.015 34.185C422.015 35.835 422.492 37.265 423.445 38.475C424.398 39.6483 425.7 40.565 427.35 41.225C429 41.8483 430.888 42.16 433.015 42.16ZM513.975 47.605C511.738 47.5683 509.63 47.275 507.65 46.725C505.707 46.1383 503.965 45.295 502.425 44.195C500.922 43.0583 499.73 41.665 498.85 40.015C498.007 38.3283 497.585 36.3667 497.585 34.13C497.585 31.8567 498.043 29.8767 498.96 28.19C499.877 26.5033 501.105 25.11 502.645 24.01C504.222 22.91 506 22.1033 507.98 21.59C509.997 21.04 512.087 20.765 514.25 20.765C516.157 20.765 517.843 20.93 519.31 21.26C520.813 21.59 522.097 22.0483 523.16 22.635C524.223 23.2217 525.03 23.9183 525.58 24.725V10.26H532.18H532.73V10.7C532.51 10.92 532.363 11.1583 532.29 11.415C532.253 11.6717 532.235 12.1117 532.235 12.735V43.37C532.235 43.9567 532.272 44.5617 532.345 45.185C532.455 45.7717 532.657 46.3767 532.95 47H526.075C525.928 46.6333 525.8 46.285 525.69 45.955C525.58 45.5883 525.507 45.24 525.47 44.91C525.47 44.5433 525.47 44.1583 525.47 43.755C524.847 44.5617 523.948 45.2583 522.775 45.845C521.638 46.4317 520.318 46.8717 518.815 47.165C517.312 47.4583 515.698 47.605 513.975 47.605ZM515.13 42.215C516.89 42.215 518.412 42.0683 519.695 41.775C521.015 41.445 522.097 40.95 522.94 40.29C523.82 39.5933 524.462 38.75 524.865 37.76C525.305 36.7333 525.525 35.5233 525.525 34.13C525.525 32.2967 525.085 30.775 524.205 29.565C523.362 28.355 522.133 27.475 520.52 26.925C518.943 26.3383 517 26.045 514.69 26.045C513.113 26.045 511.683 26.21 510.4 26.54C509.117 26.87 507.998 27.365 507.045 28.025C506.128 28.685 505.413 29.51 504.9 30.5C504.423 31.49 504.185 32.6633 504.185 34.02C504.185 35.78 504.643 37.2833 505.56 38.53C506.477 39.74 507.76 40.6567 509.41 41.28C511.06 41.9033 512.967 42.215 515.13 42.215ZM513.37 18.895V14.11H536.085V18.895H513.37ZM553.355 47.605C548.992 47.605 545.618 46.9633 543.235 45.68C540.888 44.3967 539.715 42.6183 539.715 40.345C539.715 38.9517 540.137 37.6867 540.98 36.55C541.86 35.4133 543.143 34.4417 544.83 33.635C546.553 32.7917 548.662 32.15 551.155 31.71C553.648 31.27 556.527 31.05 559.79 31.05C560.56 31.05 561.422 31.0683 562.375 31.105C563.365 31.1417 564.392 31.1967 565.455 31.27C566.518 31.3433 567.545 31.4167 568.535 31.49L568.645 36.11C567.765 36 566.812 35.9267 565.785 35.89C564.795 35.8533 563.787 35.835 562.76 35.835C561.77 35.7983 560.89 35.78 560.12 35.78C557.773 35.78 555.738 35.8717 554.015 36.055C552.292 36.2383 550.862 36.5133 549.725 36.88C548.588 37.2467 547.727 37.6867 547.14 38.2C546.59 38.6767 546.315 39.2083 546.315 39.795C546.315 40.2717 546.498 40.6933 546.865 41.06C547.232 41.4267 547.763 41.72 548.46 41.94C549.193 42.16 550.055 42.3433 551.045 42.49C552.035 42.6 553.135 42.655 554.345 42.655C556.325 42.655 558.085 42.49 559.625 42.16C561.202 41.83 562.54 41.335 563.64 40.675C564.777 39.9783 565.62 39.08 566.17 37.98C566.757 36.8433 567.032 35.505 566.995 33.965C566.995 31.765 566.573 30.0783 565.73 28.905C564.887 27.7317 563.695 26.925 562.155 26.485C560.615 26.045 558.727 25.825 556.49 25.825C554.29 25.825 552.31 26.0267 550.55 26.43C548.79 26.8333 547.158 27.53 545.655 28.52L541.86 24.725C543.803 23.4417 546.003 22.47 548.46 21.81C550.917 21.15 553.667 20.82 556.71 20.82C559.167 20.82 561.403 21.0033 563.42 21.37C565.437 21.7367 567.197 22.3783 568.7 23.295C570.203 24.175 571.358 25.4033 572.165 26.98C572.972 28.5567 573.375 30.555 573.375 32.975V47H566.665V44.03C565.895 44.69 564.978 45.2583 563.915 45.735C562.888 46.175 561.77 46.5417 560.56 46.835C559.35 47.0917 558.122 47.275 556.875 47.385C555.665 47.5317 554.492 47.605 553.355 47.605ZM547.14 19.225L543.95 15.925L555.445 9.27H558.14L569.635 15.925L566.445 19.225L556.765 14.055L547.14 19.225ZM595.375 47.605C593.248 47.605 591.397 47.4033 589.82 47C588.243 46.56 586.923 45.955 585.86 45.185C584.833 44.415 584.008 43.5167 583.385 42.49C582.762 41.4633 582.303 40.3633 582.01 39.19C581.753 37.98 581.625 36.7517 581.625 35.505L581.68 21.425H588.39V35.285C588.39 36.3117 588.518 37.265 588.775 38.145C589.068 38.9883 589.545 39.7217 590.205 40.345C590.865 40.9683 591.745 41.4633 592.845 41.83C593.982 42.16 595.375 42.325 597.025 42.325C598.418 42.325 599.738 42.1967 600.985 41.94C602.232 41.6467 603.332 41.2067 604.285 40.62C605.238 40.0333 605.972 39.3 606.485 38.42C607.035 37.54 607.31 36.4767 607.31 35.23V21.425H614.02V42.985C614.02 43.7183 614.057 44.415 614.13 45.075C614.203 45.6983 614.442 46.34 614.845 47H608.63C608.41 46.6333 608.227 46.2667 608.08 45.9C607.97 45.5333 607.897 45.1667 607.86 44.8C607.823 44.3967 607.805 43.9933 607.805 43.59C607.218 44.25 606.467 44.8367 605.55 45.35C604.633 45.8633 603.607 46.285 602.47 46.615C601.37 46.945 600.215 47.1833 599.005 47.33C597.795 47.5133 596.585 47.605 595.375 47.605ZM662.475 47V21.425H668.635V24.285C669.148 23.5883 669.772 22.9833 670.505 22.47C671.238 21.9567 672.045 21.5533 672.925 21.26C673.842 20.9667 674.795 20.82 675.785 20.82C676.812 20.82 677.783 21.0033 678.7 21.37C679.653 21.7 680.46 22.1767 681.12 22.8C681.78 23.3867 682.22 24.065 682.44 24.835C682.953 24.1017 683.613 23.4417 684.42 22.855C685.263 22.2317 686.217 21.7367 687.28 21.37C688.38 20.9667 689.553 20.7833 690.8 20.82C692.597 20.82 694.045 21.0767 695.145 21.59C696.282 22.0667 697.143 22.7083 697.73 23.515C698.317 24.3217 698.72 25.2017 698.94 26.155C699.16 27.1083 699.252 28.0617 699.215 29.015V47H692.945V30.39C692.945 29.1433 692.798 28.19 692.505 27.53C692.212 26.8333 691.79 26.3383 691.24 26.045C690.69 25.7517 690.048 25.605 689.315 25.605C688.398 25.605 687.518 25.8617 686.675 26.375C685.868 26.8883 685.208 27.585 684.695 28.465C684.182 29.345 683.925 30.3717 683.925 31.545V47H677.765V30.665C677.765 28.9417 677.453 27.6767 676.83 26.87C676.207 26.0267 675.253 25.605 673.97 25.605C673.42 25.605 672.833 25.7333 672.21 25.99C671.623 26.2467 671.055 26.6317 670.505 27.145C669.992 27.6217 669.57 28.2267 669.24 28.96C668.91 29.6567 668.745 30.445 668.745 31.325V47H662.475ZM718.355 47.605C713.992 47.605 710.618 46.9633 708.235 45.68C705.888 44.3967 704.715 42.6183 704.715 40.345C704.715 38.9517 705.137 37.6867 705.98 36.55C706.86 35.4133 708.143 34.4417 709.83 33.635C711.553 32.7917 713.662 32.15 716.155 31.71C718.648 31.27 721.527 31.05 724.79 31.05C725.56 31.05 726.422 31.0683 727.375 31.105C728.365 31.1417 729.392 31.1967 730.455 31.27C731.518 31.3433 732.545 31.4167 733.535 31.49L733.645 36.11C732.765 36 731.812 35.9267 730.785 35.89C729.795 35.8533 728.787 35.835 727.76 35.835C726.77 35.7983 725.89 35.78 725.12 35.78C722.773 35.78 720.738 35.8717 719.015 36.055C717.292 36.2383 715.862 36.5133 714.725 36.88C713.588 37.2467 712.727 37.6867 712.14 38.2C711.59 38.6767 711.315 39.2083 711.315 39.795C711.315 40.2717 711.498 40.6933 711.865 41.06C712.232 41.4267 712.763 41.72 713.46 41.94C714.193 42.16 715.055 42.3433 716.045 42.49C717.035 42.6 718.135 42.655 719.345 42.655C721.325 42.655 723.085 42.49 724.625 42.16C726.202 41.83 727.54 41.335 728.64 40.675C729.777 39.9783 730.62 39.08 731.17 37.98C731.757 36.8433 732.032 35.505 731.995 33.965C731.995 31.765 731.573 30.0783 730.73 28.905C729.887 27.7317 728.695 26.925 727.155 26.485C725.615 26.045 723.727 25.825 721.49 25.825C719.29 25.825 717.31 26.0267 715.55 26.43C713.79 26.8333 712.158 27.53 710.655 28.52L706.86 24.725C708.803 23.4417 711.003 22.47 713.46 21.81C715.917 21.15 718.667 20.82 721.71 20.82C724.167 20.82 726.403 21.0033 728.42 21.37C730.437 21.7367 732.197 22.3783 733.7 23.295C735.203 24.175 736.358 25.4033 737.165 26.98C737.972 28.5567 738.375 30.555 738.375 32.975V47H731.665V44.03C730.895 44.69 729.978 45.2583 728.915 45.735C727.888 46.175 726.77 46.5417 725.56 46.835C724.35 47.0917 723.122 47.275 721.875 47.385C720.665 47.5317 719.492 47.605 718.355 47.605ZM722.315 19.5L713.02 12.35L718.74 8.665L726.715 16.915L722.315 19.5ZM802.725 47.605C800.488 47.5683 798.38 47.275 796.4 46.725C794.457 46.1383 792.715 45.295 791.175 44.195C789.672 43.0583 788.48 41.665 787.6 40.015C786.757 38.3283 786.335 36.3667 786.335 34.13C786.335 31.8567 786.793 29.8767 787.71 28.19C788.627 26.5033 789.855 25.11 791.395 24.01C792.972 22.91 794.75 22.1033 796.73 21.59C798.747 21.04 800.837 20.765 803 20.765C804.907 20.765 806.593 20.93 808.06 21.26C809.563 21.59 810.847 22.0483 811.91 22.635C812.973 23.2217 813.78 23.9183 814.33 24.725V10.26H820.93H821.48V10.7C821.26 10.92 821.113 11.1583 821.04 11.415C821.003 11.6717 820.985 12.1117 820.985 12.735V43.37C820.985 43.9567 821.022 44.5617 821.095 45.185C821.205 45.7717 821.407 46.3767 821.7 47H814.825C814.678 46.6333 814.55 46.285 814.44 45.955C814.33 45.5883 814.257 45.24 814.22 44.91C814.22 44.5433 814.22 44.1583 814.22 43.755C813.597 44.5617 812.698 45.2583 811.525 45.845C810.388 46.4317 809.068 46.8717 807.565 47.165C806.062 47.4583 804.448 47.605 802.725 47.605ZM803.88 42.215C805.64 42.215 807.162 42.0683 808.445 41.775C809.765 41.445 810.847 40.95 811.69 40.29C812.57 39.5933 813.212 38.75 813.615 37.76C814.055 36.7333 814.275 35.5233 814.275 34.13C814.275 32.2967 813.835 30.775 812.955 29.565C812.112 28.355 810.883 27.475 809.27 26.925C807.693 26.3383 805.75 26.045 803.44 26.045C801.863 26.045 800.433 26.21 799.15 26.54C797.867 26.87 796.748 27.365 795.795 28.025C794.878 28.685 794.163 29.51 793.65 30.5C793.173 31.49 792.935 32.6633 792.935 34.02C792.935 35.78 793.393 37.2833 794.31 38.53C795.227 39.74 796.51 40.6567 798.16 41.28C799.81 41.9033 801.717 42.215 803.88 42.215ZM802.12 18.895V14.11H824.835V18.895H802.12ZM845.515 47.495C841.958 47.5317 838.842 47 836.165 45.9C833.488 44.7633 831.38 43.1867 829.84 41.17C828.337 39.1533 827.585 36.8433 827.585 34.24C827.585 31.6733 828.337 29.3817 829.84 27.365C831.38 25.3483 833.488 23.7533 836.165 22.58C838.842 21.4067 841.958 20.82 845.515 20.82C849.072 20.82 852.17 21.4067 854.81 22.58C857.487 23.7533 859.558 25.3483 861.025 27.365C862.492 29.3817 863.225 31.6733 863.225 34.24C863.225 36.8067 862.492 39.0983 861.025 41.115C859.558 43.1317 857.487 44.7083 854.81 45.845C852.17 46.945 849.072 47.495 845.515 47.495ZM845.515 42.16C847.678 42.16 849.567 41.8483 851.18 41.225C852.793 40.565 854.04 39.6483 854.92 38.475C855.837 37.265 856.295 35.835 856.295 34.185C856.295 32.4983 855.837 31.0683 854.92 29.895C854.04 28.685 852.793 27.7683 851.18 27.145C849.567 26.485 847.678 26.155 845.515 26.155C843.425 26.155 841.537 26.485 839.85 27.145C838.2 27.7683 836.898 28.685 835.945 29.895C834.992 31.0683 834.515 32.4983 834.515 34.185C834.515 35.835 834.992 37.265 835.945 38.475C836.898 39.6483 838.2 40.565 839.85 41.225C841.5 41.8483 843.388 42.16 845.515 42.16ZM846.065 19.5L836.77 12.35L842.49 8.665L850.465 16.915L846.065 19.5ZM873.73 47V41.72H883.96V26.705H874.17V21.425H890.67V41.72H900.13V47H873.73ZM886.985 17.355C885.848 17.355 884.877 16.97 884.07 16.2C883.3 15.43 882.915 14.495 882.915 13.395C882.915 12.2583 883.3 11.305 884.07 10.535C884.84 9.765 885.812 9.38 886.985 9.38C888.048 9.38 888.983 9.78333 889.79 10.59C890.633 11.3967 891.055 12.3317 891.055 13.395C891.055 14.495 890.652 15.43 889.845 16.2C889.038 16.97 888.085 17.355 886.985 17.355Z" fill="white"/>
</g>
<defs>
<clipPath id="clip0_443_13">
<rect width="908" height="58" fill="white"/>
</clipPath>
</defs>
</svg>
