<svg width="122" height="104" viewBox="0 0 122 104" fill="none" xmlns="http://www.w3.org/2000/svg">
<path fill-rule="evenodd" clip-rule="evenodd" d="M83 52C83 69.6731 68.6731 84 51 84C33.3269 84 19 69.6731 19 52C19 34.3269 33.3269 20 51 20C68.6731 20 83 34.3269 83 52ZM80.4622 88.6215C72.4024 95.1138 62.155 99 51 99C25.0426 99 4 77.9574 4 52C4 26.0426 25.0426 5 51 5C76.9574 5 98 26.0426 98 52C98 54.381 97.8229 56.7207 97.4813 59.0066C97.6536 59.0022 97.8266 59 98 59C109.046 59 118 67.9543 118 79C118 90.0457 109.046 99 98 99C90.442 99 83.8632 94.8076 80.4622 88.6215ZM103 79C103 81.7614 100.761 84 98 84C95.2386 84 93 81.7614 93 79C93 76.2386 95.2386 74 98 74C100.761 74 103 76.2386 103 79Z" fill="#0D0D0D"/>
</svg>
