<svg width="495" height="58" viewBox="0 0 495 58" fill="none" xmlns="http://www.w3.org/2000/svg">
<g clip-path="url(#clip0_442_2)">
<path d="M10.89 49.365L5.005 46.065L30.47 10.37L36.19 14.055L10.89 49.365ZM52.14 49.365L46.255 46.065L71.72 10.37L77.44 14.055L52.14 49.365ZM102.52 47.66C101.273 47.66 100.21 47.22 99.33 46.34C98.4867 45.46 98.065 44.415 98.065 43.205C98.065 41.995 98.4867 40.9683 99.33 40.125C100.21 39.245 101.273 38.805 102.52 38.805C103.73 38.805 104.757 39.245 105.6 40.125C106.48 40.9683 106.92 41.995 106.92 43.205C106.92 44.415 106.48 45.46 105.6 46.34C104.757 47.22 103.73 47.66 102.52 47.66ZM154.66 56.185V43.975C154 44.745 153.12 45.405 152.02 45.955C150.92 46.505 149.618 46.9083 148.115 47.165C146.648 47.4583 144.998 47.605 143.165 47.605C140.928 47.605 138.802 47.33 136.785 46.78C134.768 46.1933 132.972 45.3317 131.395 44.195C129.855 43.0583 128.645 41.665 127.765 40.015C126.885 38.365 126.445 36.44 126.445 34.24C126.445 32.0767 126.885 30.1517 127.765 28.465C128.682 26.7783 129.928 25.3667 131.505 24.23C133.082 23.0933 134.878 22.2317 136.895 21.645C138.948 21.0583 141.112 20.765 143.385 20.765C144.815 20.765 146.135 20.875 147.345 21.095C148.555 21.2783 149.637 21.535 150.59 21.865C151.543 22.195 152.368 22.6167 153.065 23.13C153.798 23.6067 154.367 24.1567 154.77 24.78V21.425H161.315V56.185H154.66ZM144.045 42.325C145.512 42.325 146.887 42.1783 148.17 41.885C149.453 41.5917 150.572 41.1333 151.525 40.51C152.515 39.8867 153.285 39.0433 153.835 37.98C154.385 36.88 154.66 35.5233 154.66 33.91C154.66 32.4433 154.403 31.215 153.89 30.225C153.377 29.1983 152.643 28.3917 151.69 27.805C150.773 27.1817 149.692 26.7233 148.445 26.43C147.235 26.1367 145.915 25.99 144.485 25.99C142.872 25.99 141.368 26.1367 139.975 26.43C138.618 26.7233 137.427 27.1817 136.4 27.805C135.373 28.4283 134.567 29.2533 133.98 30.28C133.393 31.3067 133.1 32.5717 133.1 34.075C133.1 35.5417 133.357 36.8067 133.87 37.87C134.42 38.8967 135.172 39.74 136.125 40.4C137.115 41.06 138.27 41.555 139.59 41.885C140.947 42.1783 142.432 42.325 144.045 42.325ZM182.875 47.605C180.748 47.605 178.897 47.4033 177.32 47C175.743 46.56 174.423 45.955 173.36 45.185C172.333 44.415 171.508 43.5167 170.885 42.49C170.262 41.4633 169.803 40.3633 169.51 39.19C169.253 37.98 169.125 36.7517 169.125 35.505L169.18 21.425H175.89V35.285C175.89 36.3117 176.018 37.265 176.275 38.145C176.568 38.9883 177.045 39.7217 177.705 40.345C178.365 40.9683 179.245 41.4633 180.345 41.83C181.482 42.16 182.875 42.325 184.525 42.325C185.918 42.325 187.238 42.1967 188.485 41.94C189.732 41.6467 190.832 41.2067 191.785 40.62C192.738 40.0333 193.472 39.3 193.985 38.42C194.535 37.54 194.81 36.4767 194.81 35.23V21.425H201.52V42.985C201.52 43.7183 201.557 44.415 201.63 45.075C201.703 45.6983 201.942 46.34 202.345 47H196.13C195.91 46.6333 195.727 46.2667 195.58 45.9C195.47 45.5333 195.397 45.1667 195.36 44.8C195.323 44.3967 195.305 43.9933 195.305 43.59C194.718 44.25 193.967 44.8367 193.05 45.35C192.133 45.8633 191.107 46.285 189.97 46.615C188.87 46.945 187.715 47.1833 186.505 47.33C185.295 47.5133 184.085 47.605 182.875 47.605ZM223.355 47.605C218.992 47.605 215.618 46.9633 213.235 45.68C210.888 44.3967 209.715 42.6183 209.715 40.345C209.715 38.9517 210.137 37.6867 210.98 36.55C211.86 35.4133 213.143 34.4417 214.83 33.635C216.553 32.7917 218.662 32.15 221.155 31.71C223.648 31.27 226.527 31.05 229.79 31.05C230.56 31.05 231.422 31.0683 232.375 31.105C233.365 31.1417 234.392 31.1967 235.455 31.27C236.518 31.3433 237.545 31.4167 238.535 31.49L238.645 36.11C237.765 36 236.812 35.9267 235.785 35.89C234.795 35.8533 233.787 35.835 232.76 35.835C231.77 35.7983 230.89 35.78 230.12 35.78C227.773 35.78 225.738 35.8717 224.015 36.055C222.292 36.2383 220.862 36.5133 219.725 36.88C218.588 37.2467 217.727 37.6867 217.14 38.2C216.59 38.6767 216.315 39.2083 216.315 39.795C216.315 40.2717 216.498 40.6933 216.865 41.06C217.232 41.4267 217.763 41.72 218.46 41.94C219.193 42.16 220.055 42.3433 221.045 42.49C222.035 42.6 223.135 42.655 224.345 42.655C226.325 42.655 228.085 42.49 229.625 42.16C231.202 41.83 232.54 41.335 233.64 40.675C234.777 39.9783 235.62 39.08 236.17 37.98C236.757 36.8433 237.032 35.505 236.995 33.965C236.995 31.765 236.573 30.0783 235.73 28.905C234.887 27.7317 233.695 26.925 232.155 26.485C230.615 26.045 228.727 25.825 226.49 25.825C224.29 25.825 222.31 26.0267 220.55 26.43C218.79 26.8333 217.158 27.53 215.655 28.52L211.86 24.725C213.803 23.4417 216.003 22.47 218.46 21.81C220.917 21.15 223.667 20.82 226.71 20.82C229.167 20.82 231.403 21.0033 233.42 21.37C235.437 21.7367 237.197 22.3783 238.7 23.295C240.203 24.175 241.358 25.4033 242.165 26.98C242.972 28.5567 243.375 30.555 243.375 32.975V47H236.665V44.03C235.895 44.69 234.978 45.2583 233.915 45.735C232.888 46.175 231.77 46.5417 230.56 46.835C229.35 47.0917 228.122 47.275 226.875 47.385C225.665 47.5317 224.492 47.605 223.355 47.605ZM252.01 47V21.425H258.72V25.605C259.453 24.6517 260.443 23.8083 261.69 23.075C262.973 22.3417 264.477 21.7733 266.2 21.37C267.96 20.9667 269.885 20.7833 271.975 20.82C274.432 20.82 276.613 21.2417 278.52 22.085C280.427 22.8917 281.912 24.1567 282.975 25.88C284.075 27.6033 284.625 29.785 284.625 32.425V47H277.97V32.59C277.97 31.1967 277.677 30.0417 277.09 29.125C276.503 28.1717 275.623 27.4567 274.45 26.98C273.313 26.4667 271.847 26.21 270.05 26.21C268.657 26.21 267.282 26.3567 265.925 26.65C264.568 26.9067 263.34 27.31 262.24 27.86C261.177 28.41 260.315 29.0883 259.655 29.895C259.032 30.7017 258.72 31.6367 258.72 32.7V47H252.01ZM308.715 56.625C306.038 56.6617 303.6 56.5333 301.4 56.24C299.2 55.9467 297.312 55.5067 295.735 54.92C294.158 54.37 292.93 53.6733 292.05 52.83C291.207 52.0233 290.785 51.0883 290.785 50.025C290.785 49.035 291.097 48.155 291.72 47.385C292.38 46.615 293.26 45.9733 294.36 45.46C295.46 44.91 296.688 44.47 298.045 44.14L302.39 45.405C301.4 45.6983 300.447 46.01 299.53 46.34C298.65 46.67 297.917 47.0367 297.33 47.44C296.78 47.88 296.505 48.3933 296.505 48.98C296.505 49.42 296.78 49.805 297.33 50.135C297.917 50.5017 298.742 50.795 299.805 51.015C300.868 51.2717 302.17 51.455 303.71 51.565C305.287 51.7117 307.065 51.785 309.045 51.785C311.428 51.785 313.463 51.675 315.15 51.455C316.837 51.235 318.138 50.905 319.055 50.465C319.972 50.025 320.43 49.4933 320.43 48.87C320.43 48.32 320.118 47.8617 319.495 47.495C318.908 47.165 317.9 46.9267 316.47 46.78C315.04 46.5967 313.078 46.505 310.585 46.505C308.642 46.5417 306.827 46.505 305.14 46.395C303.453 46.285 301.913 46.1017 300.52 45.845C299.127 45.5517 297.917 45.2033 296.89 44.8C295.9 44.3967 295.13 43.9017 294.58 43.315C294.067 42.6917 293.81 41.9583 293.81 41.115C293.81 40.0517 294.305 39.0617 295.295 38.145C296.285 37.2283 297.568 36.385 299.145 35.615L303.05 37.155C302.5 37.4483 301.932 37.7233 301.345 37.98C300.795 38.2367 300.318 38.4933 299.915 38.75C299.548 39.0067 299.365 39.3183 299.365 39.685C299.365 40.1617 299.787 40.5467 300.63 40.84C301.51 41.0967 302.885 41.28 304.755 41.39C306.625 41.5 309.082 41.555 312.125 41.555C314.838 41.555 317.112 41.72 318.945 42.05C320.778 42.38 322.227 42.8567 323.29 43.48C324.39 44.1033 325.16 44.8367 325.6 45.68C326.077 46.4867 326.315 47.3667 326.315 48.32C326.315 49.3833 325.985 50.3917 325.325 51.345C324.702 52.335 323.693 53.215 322.3 53.985C320.907 54.7917 319.092 55.4333 316.855 55.91C314.618 56.3867 311.905 56.625 308.715 56.625ZM307.34 38.2C304.443 38.2 301.932 37.7967 299.805 36.99C297.678 36.1833 296.028 35.12 294.855 33.8C293.718 32.48 293.15 31.0317 293.15 29.455C293.15 27.805 293.718 26.3383 294.855 25.055C296.028 23.735 297.678 22.69 299.805 21.92C301.932 21.1133 304.443 20.71 307.34 20.71C310.2 20.71 312.693 21.0767 314.82 21.81C316.947 22.5067 318.597 23.515 319.77 24.835C320.943 26.1183 321.53 27.6583 321.53 29.455C321.53 31.1417 320.925 32.645 319.715 33.965C318.542 35.285 316.892 36.33 314.765 37.1C312.675 37.8333 310.2 38.2 307.34 38.2ZM307.34 33.47C309.027 33.47 310.493 33.305 311.74 32.975C313.023 32.645 314.013 32.1867 314.71 31.6C315.407 30.9767 315.755 30.2433 315.755 29.4C315.755 28.5933 315.407 27.915 314.71 27.365C314.013 26.7783 313.023 26.3383 311.74 26.045C310.457 25.715 308.99 25.55 307.34 25.55C305.873 25.55 304.498 25.715 303.215 26.045C301.932 26.3383 300.887 26.7783 300.08 27.365C299.31 27.915 298.925 28.5933 298.925 29.4C298.925 30.2067 299.31 30.9217 300.08 31.545C300.85 32.1317 301.858 32.6083 303.105 32.975C304.388 33.305 305.8 33.47 307.34 33.47ZM319.165 26.76L316.195 23.68C317.772 22.7633 319.458 22.0667 321.255 21.59C323.052 21.1133 325.142 20.93 327.525 21.04L328.405 25.275C326.645 25.0917 324.977 25.11 323.4 25.33C321.823 25.55 320.412 26.0267 319.165 26.76ZM350.24 47.605C346.867 47.605 343.75 47.2567 340.89 46.56C338.067 45.8267 335.647 44.7633 333.63 43.37L337.04 38.365L337.37 37.925L337.755 38.2C337.828 38.4567 337.938 38.695 338.085 38.915C338.268 39.135 338.598 39.41 339.075 39.74C340.505 40.51 342.21 41.115 344.19 41.555C346.17 41.9583 348.407 42.1783 350.9 42.215C352.367 42.215 353.723 42.1233 354.97 41.94C356.217 41.72 357.317 41.4267 358.27 41.06C359.223 40.6933 359.975 40.2533 360.525 39.74C361.075 39.19 361.35 38.5667 361.35 37.87C361.35 37.3933 361.222 36.9533 360.965 36.55C360.745 36.1467 360.36 35.78 359.81 35.45C359.297 35.0833 358.582 34.7167 357.665 34.35C356.748 33.9833 355.612 33.58 354.255 33.14C352.898 32.7 351.285 32.2233 349.415 31.71C345.858 30.6833 343.053 29.6567 341 28.63C338.947 27.6033 337.498 26.4667 336.655 25.22C335.812 23.9733 335.39 22.5617 335.39 20.985C335.39 19.1883 336.05 17.6483 337.37 16.365C338.69 15.045 340.542 14.0367 342.925 13.34C345.345 12.6067 348.15 12.24 351.34 12.24C353.32 12.24 355.208 12.405 357.005 12.735C358.838 13.065 360.543 13.56 362.12 14.22C363.733 14.8433 365.145 15.6317 366.355 16.585L362.89 20.93L362.505 21.37L362.175 21.04C362.138 20.7467 362.028 20.5083 361.845 20.325C361.698 20.105 361.387 19.83 360.91 19.5C359.553 18.7667 358.013 18.2717 356.29 18.015C354.603 17.7217 352.77 17.575 350.79 17.575C349.507 17.575 348.333 17.6483 347.27 17.795C346.207 17.9417 345.272 18.1617 344.465 18.455C343.695 18.7483 343.09 19.115 342.65 19.555C342.21 19.9583 341.99 20.4167 341.99 20.93C341.99 21.37 342.1 21.7733 342.32 22.14C342.577 22.5067 342.98 22.8733 343.53 23.24C344.117 23.6067 344.887 23.9917 345.84 24.395C346.793 24.7617 347.985 25.1833 349.415 25.66C350.845 26.1 352.568 26.595 354.585 27.145C357.152 27.8783 359.297 28.63 361.02 29.4C362.743 30.1333 364.1 30.9217 365.09 31.765C366.117 32.5717 366.85 33.4517 367.29 34.405C367.73 35.3583 367.95 36.4217 367.95 37.595C367.95 39.3183 367.327 40.95 366.08 42.49C364.833 43.9933 362.908 45.2217 360.305 46.175C357.702 47.1283 354.347 47.605 350.24 47.605ZM378.73 47V41.72H388.96V26.705H379.17V21.425H395.67V41.72H405.13V47H378.73ZM391.985 17.355C390.848 17.355 389.877 16.97 389.07 16.2C388.3 15.43 387.915 14.495 387.915 13.395C387.915 12.2583 388.3 11.305 389.07 10.535C389.84 9.765 390.812 9.38 391.985 9.38C393.048 9.38 393.983 9.78333 394.79 10.59C395.633 11.3967 396.055 12.3317 396.055 13.395C396.055 14.495 395.652 15.43 394.845 16.2C394.038 16.97 393.085 17.355 391.985 17.355ZM436.7 47.605C434.353 47.605 432.392 47.3483 430.815 46.835C429.238 46.285 427.992 45.46 427.075 44.36C426.195 43.2233 425.59 41.775 425.26 40.015C424.967 38.2183 424.875 36.0733 424.985 33.58L426.03 15.375L433.015 14.715H433.565V15.155C433.382 15.4117 433.217 15.6683 433.07 15.925C432.923 16.1817 432.813 16.6033 432.74 17.19L431.97 23.9L432.245 24.835L431.64 33.635C431.493 35.9083 431.603 37.705 431.97 39.025C432.373 40.3083 433.07 41.2067 434.06 41.72C435.05 42.2333 436.352 42.49 437.965 42.49C439.762 42.49 441.412 42.2517 442.915 41.775C444.455 41.2617 445.94 40.6567 447.37 39.96L448.91 44.69C447.003 45.6067 445.042 46.3217 443.025 46.835C441.045 47.3483 438.937 47.605 436.7 47.605ZM417.725 21.425H445.17L445.115 26.485H417.725V21.425ZM476.245 47.605C473.495 47.605 470.947 47.3117 468.6 46.725C466.253 46.1383 464.2 45.295 462.44 44.195C460.717 43.0583 459.36 41.6833 458.37 40.07C457.417 38.42 456.94 36.55 456.94 34.46C456.94 32.3333 457.398 30.4267 458.315 28.74C459.232 27.0533 460.497 25.6233 462.11 24.45C463.76 23.2767 465.703 22.3783 467.94 21.755C470.177 21.1317 472.597 20.82 475.2 20.82C477.583 20.82 479.765 21.1133 481.745 21.7C483.762 22.25 485.485 23.0933 486.915 24.23C488.382 25.33 489.518 26.6867 490.325 28.3C491.132 29.9133 491.535 31.7467 491.535 33.8C491.535 34.13 491.517 34.515 491.48 34.955C491.48 35.3583 491.443 35.725 491.37 36.055H463.265C463.448 37.155 463.907 38.1083 464.64 38.915C465.41 39.7217 466.382 40.4 467.555 40.95C468.765 41.4633 470.122 41.8483 471.625 42.105C473.165 42.325 474.778 42.435 476.465 42.435C477.748 42.435 479.013 42.38 480.26 42.27C481.543 42.1233 482.735 41.885 483.835 41.555C484.935 41.225 485.852 40.785 486.585 40.235L490.38 43.535C489.317 44.4517 488.033 45.2217 486.53 45.845C485.063 46.4317 483.45 46.8717 481.69 47.165C479.93 47.4583 478.115 47.605 476.245 47.605ZM463.375 31.215H485.155C485.082 30.335 484.752 29.565 484.165 28.905C483.615 28.2083 482.863 27.64 481.91 27.2C480.993 26.76 479.912 26.43 478.665 26.21C477.455 25.9533 476.153 25.825 474.76 25.825C473.33 25.825 471.973 25.935 470.69 26.155C469.443 26.3383 468.307 26.65 467.28 27.09C466.253 27.53 465.41 28.0983 464.75 28.795C464.09 29.455 463.632 30.2617 463.375 31.215Z" fill="white"/>
</g>
<defs>
<clipPath id="clip0_442_2">
<rect width="495" height="58" fill="white"/>
</clipPath>
</defs>
</svg>
