<svg width="617" height="58" viewBox="0 0 617 58" fill="none" xmlns="http://www.w3.org/2000/svg">
<g clip-path="url(#clip0_306_61)">
<path fill-rule="evenodd" clip-rule="evenodd" d="M112.262 53.1642L134.099 31.0157L136.315 28.7675L134.077 26.541L112.241 4.81439L107.808 9.31063L127.407 28.8106L107.786 48.7108L112.262 53.1642ZM26.7381 4.8359L4.90126 26.9843L2.68475 29.2325L4.92267 31.4591L26.7595 53.1857L31.1921 48.6893L11.5931 29.1894L31.2135 9.28911L26.7381 4.8359ZM83.6116 30.5826C83.6683 30.063 83.6973 29.5349 83.6973 29C83.6973 25.8188 82.6663 22.8794 80.9219 20.5007C79.8649 19.0591 78.5455 17.8234 77.0349 16.8646C74.8307 15.4658 72.2191 14.6563 69.4193 14.6563C63.9366 14.6563 59.1753 17.7611 56.7829 22.3162C55.967 23.8698 55.427 25.5921 55.2275 27.4174C55.1708 27.9371 55.1414 28.4651 55.1414 29C55.1414 32.1812 56.1724 35.1206 57.9168 37.4993C61.9608 36.9003 66.3676 35.99 70.9546 34.7554C75.5412 33.5207 79.8112 32.0953 83.6116 30.5826ZM89.6915 32.565C88.0101 42.2828 79.5739 49.6719 69.4193 49.6719C63.0829 49.6719 57.4158 46.7947 53.641 42.2698C43.0778 43.2679 35.4896 41.9601 34.5373 38.3897C33.5851 34.8197 39.5042 29.8764 49.1472 25.435C50.8286 15.7172 59.2652 8.32813 69.4193 8.32813C75.7558 8.32813 81.4233 11.2053 85.1977 15.7302C95.7613 14.7322 103.349 16.0399 104.302 19.6103C105.254 23.1803 99.3346 28.1236 89.6915 32.565ZM82.0557 35.6838C79.6633 40.2389 74.9025 43.3438 69.4193 43.3438C66.6196 43.3438 64.008 42.5342 61.8042 41.1354C65.0814 40.5463 68.5202 39.7783 72.0414 38.8304C75.5631 37.8824 78.9238 36.8201 82.0557 35.6838ZM87.8278 19.7522C89.3749 19.6531 90.8312 19.6119 92.1817 19.6278C95.3645 19.6652 97.7111 20.018 99.2036 20.5212C99.4971 20.6202 99.7255 20.7129 99.9023 20.7945C99.7898 20.9539 99.6382 21.1491 99.4333 21.3822C98.391 22.5677 96.5344 24.0518 93.7968 25.683C92.634 26.3756 91.3511 27.0722 89.9603 27.7642C89.7919 24.8973 89.0423 22.1875 87.8278 19.7522ZM48.8461 28.5939C48.841 28.8525 48.841 29.1115 48.8457 29.3707C48.8436 29.2473 48.8423 29.1238 48.8423 29C48.8423 28.8643 48.8436 28.729 48.8461 28.5939ZM51.0113 38.2478C49.7968 35.8125 49.0468 33.1027 48.8784 30.2359C47.4876 30.9278 46.2047 31.6244 45.0423 32.317C42.3043 33.9482 40.4478 35.4323 39.4057 36.6178C39.2008 36.8509 39.0489 37.0461 38.9366 37.2055C39.1132 37.2871 39.3419 37.3798 39.6353 37.4788C41.1278 37.982 43.4742 38.3348 46.6574 38.3722C48.0075 38.3881 49.4638 38.3469 51.0113 38.2478ZM100.447 21.1237C100.447 21.1238 100.441 21.1182 100.431 21.1062C100.443 21.1174 100.448 21.1235 100.447 21.1237ZM100.205 20.2591C100.208 20.2436 100.21 20.2356 100.211 20.2355C100.211 20.2355 100.21 20.2432 100.205 20.2591ZM38.3984 36.8829C38.3941 36.8783 38.3916 36.8762 38.3912 36.8764C38.3909 36.8765 38.3922 36.8781 38.3952 36.8813C38.3979 36.8843 38.4021 36.8884 38.408 36.8938C38.4042 36.8893 38.401 36.8856 38.3984 36.8829ZM38.634 37.7409C38.6312 37.7564 38.6287 37.7644 38.6281 37.7645C38.6275 37.7646 38.6289 37.7568 38.634 37.7409Z" fill="white"/>
<path d="M183.24 47.605C179.867 47.605 176.75 47.2567 173.89 46.56C171.067 45.8267 168.647 44.7633 166.63 43.37L170.04 38.365L170.37 37.925L170.755 38.2C170.828 38.4567 170.938 38.695 171.085 38.915C171.268 39.135 171.598 39.41 172.075 39.74C173.505 40.51 175.21 41.115 177.19 41.555C179.17 41.9583 181.407 42.1783 183.9 42.215C185.367 42.215 186.723 42.1233 187.97 41.94C189.217 41.72 190.317 41.4267 191.27 41.06C192.223 40.6933 192.975 40.2533 193.525 39.74C194.075 39.19 194.35 38.5667 194.35 37.87C194.35 37.3933 194.222 36.9533 193.965 36.55C193.745 36.1467 193.36 35.78 192.81 35.45C192.297 35.0833 191.582 34.7167 190.665 34.35C189.748 33.9833 188.612 33.58 187.255 33.14C185.898 32.7 184.285 32.2233 182.415 31.71C178.858 30.6833 176.053 29.6567 174 28.63C171.947 27.6033 170.498 26.4667 169.655 25.22C168.812 23.9733 168.39 22.5617 168.39 20.985C168.39 19.1883 169.05 17.6483 170.37 16.365C171.69 15.045 173.542 14.0367 175.925 13.34C178.345 12.6067 181.15 12.24 184.34 12.24C186.32 12.24 188.208 12.405 190.005 12.735C191.838 13.065 193.543 13.56 195.12 14.22C196.733 14.8433 198.145 15.6317 199.355 16.585L195.89 20.93L195.505 21.37L195.175 21.04C195.138 20.7467 195.028 20.5083 194.845 20.325C194.698 20.105 194.387 19.83 193.91 19.5C192.553 18.7667 191.013 18.2717 189.29 18.015C187.603 17.7217 185.77 17.575 183.79 17.575C182.507 17.575 181.333 17.6483 180.27 17.795C179.207 17.9417 178.272 18.1617 177.465 18.455C176.695 18.7483 176.09 19.115 175.65 19.555C175.21 19.9583 174.99 20.4167 174.99 20.93C174.99 21.37 175.1 21.7733 175.32 22.14C175.577 22.5067 175.98 22.8733 176.53 23.24C177.117 23.6067 177.887 23.9917 178.84 24.395C179.793 24.7617 180.985 25.1833 182.415 25.66C183.845 26.1 185.568 26.595 187.585 27.145C190.152 27.8783 192.297 28.63 194.02 29.4C195.743 30.1333 197.1 30.9217 198.09 31.765C199.117 32.5717 199.85 33.4517 200.29 34.405C200.73 35.3583 200.95 36.4217 200.95 37.595C200.95 39.3183 200.327 40.95 199.08 42.49C197.833 43.9933 195.908 45.2217 193.305 46.175C190.702 47.1283 187.347 47.605 183.24 47.605ZM208.045 56.185V21.37H214.645V25.275C215.415 24.285 216.442 23.4783 217.725 22.855C219.045 22.195 220.548 21.7 222.235 21.37C223.922 21.0033 225.7 20.82 227.57 20.82C229.66 20.82 231.64 21.095 233.51 21.645C235.38 22.195 237.048 23.02 238.515 24.12C240.018 25.22 241.192 26.6133 242.035 28.3C242.878 29.95 243.3 31.9117 243.3 34.185C243.3 36.4583 242.842 38.4567 241.925 40.18C241.045 41.8667 239.853 43.26 238.35 44.36C236.847 45.46 235.142 46.285 233.235 46.835C231.328 47.385 229.385 47.66 227.405 47.66C225.462 47.66 223.665 47.5133 222.015 47.22C220.365 46.9633 218.917 46.56 217.67 46.01C216.423 45.46 215.452 44.8183 214.755 44.085V56.185H208.045ZM225.865 42.38C227.332 42.38 228.707 42.2517 229.99 41.995C231.273 41.7017 232.41 41.2433 233.4 40.62C234.39 39.9967 235.16 39.1533 235.71 38.09C236.297 37.0267 236.59 35.7067 236.59 34.13C236.59 32.37 236.168 30.9217 235.325 29.785C234.482 28.6117 233.308 27.7317 231.805 27.145C230.302 26.5217 228.578 26.1733 226.635 26.1C225.058 26.0633 223.555 26.1917 222.125 26.485C220.695 26.7783 219.412 27.2733 218.275 27.97C217.175 28.63 216.295 29.51 215.635 30.61C215.012 31.71 214.7 33.03 214.7 34.57C214.737 35.7067 214.938 36.715 215.305 37.595C215.708 38.4383 216.24 39.1717 216.9 39.795C217.597 40.3817 218.403 40.8767 219.32 41.28C220.237 41.6467 221.245 41.9217 222.345 42.105C223.482 42.2883 224.655 42.38 225.865 42.38ZM262.605 47.605C258.242 47.605 254.868 46.9633 252.485 45.68C250.138 44.3967 248.965 42.6183 248.965 40.345C248.965 38.9517 249.387 37.6867 250.23 36.55C251.11 35.4133 252.393 34.4417 254.08 33.635C255.803 32.7917 257.912 32.15 260.405 31.71C262.898 31.27 265.777 31.05 269.04 31.05C269.81 31.05 270.672 31.0683 271.625 31.105C272.615 31.1417 273.642 31.1967 274.705 31.27C275.768 31.3433 276.795 31.4167 277.785 31.49L277.895 36.11C277.015 36 276.062 35.9267 275.035 35.89C274.045 35.8533 273.037 35.835 272.01 35.835C271.02 35.7983 270.14 35.78 269.37 35.78C267.023 35.78 264.988 35.8717 263.265 36.055C261.542 36.2383 260.112 36.5133 258.975 36.88C257.838 37.2467 256.977 37.6867 256.39 38.2C255.84 38.6767 255.565 39.2083 255.565 39.795C255.565 40.2717 255.748 40.6933 256.115 41.06C256.482 41.4267 257.013 41.72 257.71 41.94C258.443 42.16 259.305 42.3433 260.295 42.49C261.285 42.6 262.385 42.655 263.595 42.655C265.575 42.655 267.335 42.49 268.875 42.16C270.452 41.83 271.79 41.335 272.89 40.675C274.027 39.9783 274.87 39.08 275.42 37.98C276.007 36.8433 276.282 35.505 276.245 33.965C276.245 31.765 275.823 30.0783 274.98 28.905C274.137 27.7317 272.945 26.925 271.405 26.485C269.865 26.045 267.977 25.825 265.74 25.825C263.54 25.825 261.56 26.0267 259.8 26.43C258.04 26.8333 256.408 27.53 254.905 28.52L251.11 24.725C253.053 23.4417 255.253 22.47 257.71 21.81C260.167 21.15 262.917 20.82 265.96 20.82C268.417 20.82 270.653 21.0033 272.67 21.37C274.687 21.7367 276.447 22.3783 277.95 23.295C279.453 24.175 280.608 25.4033 281.415 26.98C282.222 28.5567 282.625 30.555 282.625 32.975V47H275.915V44.03C275.145 44.69 274.228 45.2583 273.165 45.735C272.138 46.175 271.02 46.5417 269.81 46.835C268.6 47.0917 267.372 47.275 266.125 47.385C264.915 47.5317 263.742 47.605 262.605 47.605ZM310.015 47.605C307.228 47.605 304.643 47.2933 302.26 46.67C299.913 46.01 297.86 45.0933 296.1 43.92C294.34 42.7467 292.965 41.3533 291.975 39.74C291.022 38.09 290.545 36.275 290.545 34.295C290.545 32.2783 291.022 30.445 291.975 28.795C292.965 27.145 294.34 25.7333 296.1 24.56C297.86 23.35 299.913 22.4333 302.26 21.81C304.643 21.15 307.21 20.82 309.96 20.82C313.187 20.82 316.047 21.2417 318.54 22.085C321.07 22.9283 323.105 24.1017 324.645 25.605L321.125 29.84L320.74 30.225L320.41 29.95C320.373 29.6567 320.282 29.4 320.135 29.18C319.988 28.9233 319.677 28.6117 319.2 28.245C317.917 27.475 316.468 26.9433 314.855 26.65C313.242 26.32 311.463 26.155 309.52 26.155C308.017 26.155 306.55 26.3383 305.12 26.705C303.69 27.035 302.388 27.53 301.215 28.19C300.078 28.85 299.18 29.675 298.52 30.665C297.86 31.655 297.53 32.81 297.53 34.13C297.53 35.4133 297.86 36.55 298.52 37.54C299.217 38.53 300.152 39.3733 301.325 40.07C302.498 40.7667 303.855 41.3167 305.395 41.72C306.935 42.0867 308.585 42.27 310.345 42.27C311.555 42.27 312.783 42.16 314.03 41.94C315.313 41.72 316.523 41.3717 317.66 40.895C318.833 40.4183 319.86 39.8317 320.74 39.135L324.15 43.59C322.243 45.02 320.062 46.0467 317.605 46.67C315.185 47.2933 312.655 47.605 310.015 47.605ZM350.495 47.605C347.745 47.605 345.197 47.3117 342.85 46.725C340.503 46.1383 338.45 45.295 336.69 44.195C334.967 43.0583 333.61 41.6833 332.62 40.07C331.667 38.42 331.19 36.55 331.19 34.46C331.19 32.3333 331.648 30.4267 332.565 28.74C333.482 27.0533 334.747 25.6233 336.36 24.45C338.01 23.2767 339.953 22.3783 342.19 21.755C344.427 21.1317 346.847 20.82 349.45 20.82C351.833 20.82 354.015 21.1133 355.995 21.7C358.012 22.25 359.735 23.0933 361.165 24.23C362.632 25.33 363.768 26.6867 364.575 28.3C365.382 29.9133 365.785 31.7467 365.785 33.8C365.785 34.13 365.767 34.515 365.73 34.955C365.73 35.3583 365.693 35.725 365.62 36.055H337.515C337.698 37.155 338.157 38.1083 338.89 38.915C339.66 39.7217 340.632 40.4 341.805 40.95C343.015 41.4633 344.372 41.8483 345.875 42.105C347.415 42.325 349.028 42.435 350.715 42.435C351.998 42.435 353.263 42.38 354.51 42.27C355.793 42.1233 356.985 41.885 358.085 41.555C359.185 41.225 360.102 40.785 360.835 40.235L364.63 43.535C363.567 44.4517 362.283 45.2217 360.78 45.845C359.313 46.4317 357.7 46.8717 355.94 47.165C354.18 47.4583 352.365 47.605 350.495 47.605ZM337.625 31.215H359.405C359.332 30.335 359.002 29.565 358.415 28.905C357.865 28.2083 357.113 27.64 356.16 27.2C355.243 26.76 354.162 26.43 352.915 26.21C351.705 25.9533 350.403 25.825 349.01 25.825C347.58 25.825 346.223 25.935 344.94 26.155C343.693 26.3383 342.557 26.65 341.53 27.09C340.503 27.53 339.66 28.0983 339 28.795C338.34 29.455 337.882 30.2617 337.625 31.215ZM392.57 47.605C389.673 47.605 386.997 47.2383 384.54 46.505C382.12 45.7717 379.993 44.6717 378.16 43.205C376.363 41.7383 374.952 39.905 373.925 37.705C372.935 35.505 372.44 32.9567 372.44 30.06C372.44 27.42 372.825 25.11 373.595 23.13C374.365 21.15 375.428 19.4817 376.785 18.125C378.142 16.7317 379.663 15.6133 381.35 14.77C383.073 13.9267 384.888 13.3217 386.795 12.955C388.702 12.5517 390.59 12.35 392.46 12.35C396.237 12.35 399.463 12.9367 402.14 14.11C404.817 15.2467 406.833 16.86 408.19 18.95L404.23 22.415L403.79 22.745L403.57 22.36C403.57 22.0667 403.497 21.81 403.35 21.59C403.24 21.37 402.983 21.04 402.58 20.6C401.26 19.5 399.757 18.7483 398.07 18.345C396.383 17.9417 394.532 17.74 392.515 17.74C390.755 17.74 389.068 17.9783 387.455 18.455C385.842 18.9317 384.393 19.665 383.11 20.655C381.863 21.645 380.873 22.91 380.14 24.45C379.443 25.9533 379.095 27.7317 379.095 29.785C379.095 31.765 379.425 33.525 380.085 35.065C380.782 36.605 381.735 37.9067 382.945 38.97C384.155 39.9967 385.567 40.785 387.18 41.335C388.793 41.8483 390.572 42.105 392.515 42.105C393.872 42.105 395.228 41.9767 396.585 41.72C397.978 41.4633 399.262 41.0417 400.435 40.455C401.645 39.8683 402.635 39.1533 403.405 38.31L407.53 42.05C405.807 43.9933 403.735 45.405 401.315 46.285C398.895 47.165 395.98 47.605 392.57 47.605ZM431.015 47.495C427.458 47.5317 424.342 47 421.665 45.9C418.988 44.7633 416.88 43.1867 415.34 41.17C413.837 39.1533 413.085 36.8433 413.085 34.24C413.085 31.6733 413.837 29.3817 415.34 27.365C416.88 25.3483 418.988 23.7533 421.665 22.58C424.342 21.4067 427.458 20.82 431.015 20.82C434.572 20.82 437.67 21.4067 440.31 22.58C442.987 23.7533 445.058 25.3483 446.525 27.365C447.992 29.3817 448.725 31.6733 448.725 34.24C448.725 36.8067 447.992 39.0983 446.525 41.115C445.058 43.1317 442.987 44.7083 440.31 45.845C437.67 46.945 434.572 47.495 431.015 47.495ZM431.015 42.16C433.178 42.16 435.067 41.8483 436.68 41.225C438.293 40.565 439.54 39.6483 440.42 38.475C441.337 37.265 441.795 35.835 441.795 34.185C441.795 32.4983 441.337 31.0683 440.42 29.895C439.54 28.685 438.293 27.7683 436.68 27.145C435.067 26.485 433.178 26.155 431.015 26.155C428.925 26.155 427.037 26.485 425.35 27.145C423.7 27.7683 422.398 28.685 421.445 29.895C420.492 31.0683 420.015 32.4983 420.015 34.185C420.015 35.835 420.492 37.265 421.445 38.475C422.398 39.6483 423.7 40.565 425.35 41.225C427 41.8483 428.888 42.16 431.015 42.16ZM469.625 47.605C467.498 47.605 465.647 47.4033 464.07 47C462.493 46.56 461.173 45.955 460.11 45.185C459.083 44.415 458.258 43.5167 457.635 42.49C457.012 41.4633 456.553 40.3633 456.26 39.19C456.003 37.98 455.875 36.7517 455.875 35.505L455.93 21.425H462.64V35.285C462.64 36.3117 462.768 37.265 463.025 38.145C463.318 38.9883 463.795 39.7217 464.455 40.345C465.115 40.9683 465.995 41.4633 467.095 41.83C468.232 42.16 469.625 42.325 471.275 42.325C472.668 42.325 473.988 42.1967 475.235 41.94C476.482 41.6467 477.582 41.2067 478.535 40.62C479.488 40.0333 480.222 39.3 480.735 38.42C481.285 37.54 481.56 36.4767 481.56 35.23V21.425H488.27V42.985C488.27 43.7183 488.307 44.415 488.38 45.075C488.453 45.6983 488.692 46.34 489.095 47H482.88C482.66 46.6333 482.477 46.2667 482.33 45.9C482.22 45.5333 482.147 45.1667 482.11 44.8C482.073 44.3967 482.055 43.9933 482.055 43.59C481.468 44.25 480.717 44.8367 479.8 45.35C478.883 45.8633 477.857 46.285 476.72 46.615C475.62 46.945 474.465 47.1833 473.255 47.33C472.045 47.5133 470.835 47.605 469.625 47.605ZM500.865 21.425H507.74L507.575 28.465L506.75 27.805C507.043 26.7417 507.612 25.7883 508.455 24.945C509.335 24.1017 510.398 23.3683 511.645 22.745C512.892 22.1217 514.248 21.645 515.715 21.315C517.182 20.985 518.63 20.82 520.06 20.82C522.333 20.82 524.387 21.095 526.22 21.645C528.053 22.195 529.612 22.9833 530.895 24.01L527.815 28.905L527.54 29.4L527.155 29.18C527.082 28.8867 526.953 28.63 526.77 28.41C526.623 28.1533 526.293 27.86 525.78 27.53C524.753 27.0167 523.69 26.65 522.59 26.43C521.527 26.1733 520.39 26.045 519.18 26.045C517.823 26.045 516.448 26.1917 515.055 26.485C513.698 26.7783 512.452 27.255 511.315 27.915C510.215 28.5383 509.317 29.3633 508.62 30.39C507.96 31.38 507.63 32.6083 507.63 34.075V47.055H500.865V21.425ZM555.59 47.605C553.243 47.605 551.062 47.4583 549.045 47.165C547.065 46.8717 545.232 46.4317 543.545 45.845C541.895 45.2217 540.318 44.4333 538.815 43.48L542.39 38.64L542.72 38.2L543.05 38.475C543.123 38.7683 543.233 39.025 543.38 39.245C543.563 39.4283 543.912 39.685 544.425 40.015C545.782 40.7483 547.377 41.335 549.21 41.775C551.08 42.1783 553.243 42.38 555.7 42.38C557.57 42.38 559.183 42.2883 560.54 42.105C561.897 41.885 562.942 41.5733 563.675 41.17C564.408 40.7667 564.775 40.3083 564.775 39.795C564.775 39.355 564.628 38.9883 564.335 38.695C564.042 38.4017 563.528 38.145 562.795 37.925C562.062 37.705 561.072 37.4667 559.825 37.21C558.578 36.9533 556.983 36.6967 555.04 36.44C551.813 35.9267 549.118 35.3583 546.955 34.735C544.828 34.075 543.233 33.25 542.17 32.26C541.143 31.2333 540.63 29.9317 540.63 28.355C540.63 26.8883 541.198 25.5867 542.335 24.45C543.508 23.3133 545.195 22.4333 547.395 21.81C549.595 21.15 552.217 20.82 555.26 20.82C556.947 20.82 558.505 20.8933 559.935 21.04C561.365 21.1867 562.685 21.425 563.895 21.755C565.142 22.085 566.297 22.5067 567.36 23.02C568.423 23.5333 569.45 24.1383 570.44 24.835L566.975 28.905L566.59 29.345L566.26 29.015C566.223 28.7217 566.113 28.5017 565.93 28.355C565.747 28.1717 565.398 27.915 564.885 27.585C563.675 27.035 562.263 26.6317 560.65 26.375C559.037 26.0817 557.295 25.935 555.425 25.935C552.932 25.935 550.897 26.1183 549.32 26.485C547.78 26.8517 547.01 27.4017 547.01 28.135C547.01 28.6117 547.358 29.0333 548.055 29.4C548.788 29.73 549.962 30.06 551.575 30.39C553.188 30.6833 555.333 31.0317 558.01 31.435C561.127 31.9117 563.638 32.4983 565.545 33.195C567.488 33.8917 568.9 34.7717 569.78 35.835C570.697 36.8617 571.155 38.1083 571.155 39.575C571.155 41.1517 570.568 42.545 569.395 43.755C568.222 44.965 566.462 45.9183 564.115 46.615C561.805 47.275 558.963 47.605 555.59 47.605ZM597.995 47.605C595.245 47.605 592.697 47.3117 590.35 46.725C588.003 46.1383 585.95 45.295 584.19 44.195C582.467 43.0583 581.11 41.6833 580.12 40.07C579.167 38.42 578.69 36.55 578.69 34.46C578.69 32.3333 579.148 30.4267 580.065 28.74C580.982 27.0533 582.247 25.6233 583.86 24.45C585.51 23.2767 587.453 22.3783 589.69 21.755C591.927 21.1317 594.347 20.82 596.95 20.82C599.333 20.82 601.515 21.1133 603.495 21.7C605.512 22.25 607.235 23.0933 608.665 24.23C610.132 25.33 611.268 26.6867 612.075 28.3C612.882 29.9133 613.285 31.7467 613.285 33.8C613.285 34.13 613.267 34.515 613.23 34.955C613.23 35.3583 613.193 35.725 613.12 36.055H585.015C585.198 37.155 585.657 38.1083 586.39 38.915C587.16 39.7217 588.132 40.4 589.305 40.95C590.515 41.4633 591.872 41.8483 593.375 42.105C594.915 42.325 596.528 42.435 598.215 42.435C599.498 42.435 600.763 42.38 602.01 42.27C603.293 42.1233 604.485 41.885 605.585 41.555C606.685 41.225 607.602 40.785 608.335 40.235L612.13 43.535C611.067 44.4517 609.783 45.2217 608.28 45.845C606.813 46.4317 605.2 46.8717 603.44 47.165C601.68 47.4583 599.865 47.605 597.995 47.605ZM585.125 31.215H606.905C606.832 30.335 606.502 29.565 605.915 28.905C605.365 28.2083 604.613 27.64 603.66 27.2C602.743 26.76 601.662 26.43 600.415 26.21C599.205 25.9533 597.903 25.825 596.51 25.825C595.08 25.825 593.723 25.935 592.44 26.155C591.193 26.3383 590.057 26.65 589.03 27.09C588.003 27.53 587.16 28.0983 586.5 28.795C585.84 29.455 585.382 30.2617 585.125 31.215Z" fill="white"/>
</g>
<defs>
<clipPath id="clip0_306_61">
<rect width="617" height="58" fill="white"/>
</clipPath>
</defs>
</svg>
