<svg width="319" height="115" viewBox="0 0 319 115" fill="none" xmlns="http://www.w3.org/2000/svg">
<path fill-rule="evenodd" clip-rule="evenodd" d="M313.329 62.7779L261.329 115.278L250.671 104.722L297.393 57.551L250.722 11.3289L261.278 0.671143L313.278 52.1711L318.607 57.449L313.329 62.7779ZM5.67142 53.2221L57.6714 0.722135L68.3287 11.2779L21.6068 58.449L68.2777 104.671L57.7224 115.329L5.72242 63.8289L0.393311 58.551L5.67142 53.2221ZM146 90C163.673 90 178 75.6731 178 58C178 40.3269 163.673 26 146 26C128.327 26 114 40.3269 114 58C114 75.6731 128.327 90 146 90ZM146 105C157.155 105 167.402 101.114 175.462 94.6215C178.863 100.808 185.442 105 193 105C204.046 105 213 96.0457 213 85C213 73.9543 204.046 65 193 65C192.827 65 192.654 65.0022 192.481 65.0066C192.823 62.7207 193 60.381 193 58C193 32.0426 171.957 11 146 11C120.043 11 99 32.0426 99 58C99 83.9574 120.043 105 146 105ZM193 90C195.761 90 198 87.7614 198 85C198 82.2386 195.761 80 193 80C190.239 80 188 82.2386 188 85C188 87.7614 190.239 90 193 90Z" fill="white"/>
</svg>
